<svg width="395" height="154" viewBox="0 0 395 154" fill="none" xmlns="http://www.w3.org/2000/svg">
<rect width="395" height="154" rx="10" fill="#EDEDF6"/>
<rect width="395" height="151" rx="10" fill="white"/>
<path d="M147.644 58.98C149.679 58.98 151.34 59.6053 152.628 60.856C153.916 62.088 154.56 63.6933 154.56 65.672C154.56 67.6507 153.916 69.2653 152.628 70.516C151.34 71.748 149.679 72.364 147.644 72.364C145.591 72.364 143.92 71.748 142.632 70.516C141.344 69.2653 140.7 67.6507 140.7 65.672C140.7 64.1787 141.092 62.8627 141.876 61.724L148.092 52.4H151.76L147.28 58.98H147.644ZM147.644 69.312C148.727 69.312 149.613 68.9853 150.304 68.332C150.995 67.66 151.34 66.7733 151.34 65.672C151.34 64.5707 150.995 63.6933 150.304 63.04C149.613 62.368 148.727 62.032 147.644 62.032C146.543 62.032 145.647 62.368 144.956 63.04C144.265 63.6933 143.92 64.5707 143.92 65.672C143.92 66.7733 144.265 67.66 144.956 68.332C145.647 68.9853 146.543 69.312 147.644 69.312ZM160.059 71.72C159.648 72.1307 159.154 72.336 158.575 72.336C157.996 72.336 157.502 72.1307 157.091 71.72C156.68 71.3093 156.475 70.8147 156.475 70.236C156.475 69.6573 156.671 69.1627 157.063 68.752C157.474 68.3413 157.978 68.136 158.575 68.136C159.154 68.136 159.648 68.3413 160.059 68.752C160.47 69.1627 160.675 69.6573 160.675 70.236C160.675 70.8147 160.47 71.3093 160.059 71.72ZM174.252 61.808C176.174 62.872 177.136 64.4587 177.136 66.568C177.136 68.36 176.51 69.7787 175.26 70.824C174.009 71.8507 172.348 72.364 170.276 72.364C168.204 72.364 166.533 71.8507 165.264 70.824C164.013 69.7787 163.388 68.36 163.388 66.568C163.388 65.56 163.64 64.6453 164.144 63.824C164.648 62.984 165.357 62.312 166.272 61.808C164.797 60.8373 164.06 59.456 164.06 57.664C164.06 55.872 164.657 54.4907 165.852 53.52C167.046 52.5307 168.521 52.036 170.276 52.036C172.012 52.036 173.477 52.5307 174.672 53.52C175.885 54.4907 176.492 55.872 176.492 57.664C176.492 59.456 175.745 60.8373 174.252 61.808ZM170.276 55.088C169.398 55.088 168.68 55.3213 168.12 55.788C167.56 56.2547 167.28 56.9267 167.28 57.804C167.28 58.644 167.56 59.3067 168.12 59.792C168.698 60.2773 169.417 60.52 170.276 60.52C171.116 60.52 171.825 60.2773 172.404 59.792C172.982 59.3067 173.272 58.644 173.272 57.804C173.272 56.9267 172.982 56.2547 172.404 55.788C171.844 55.3213 171.134 55.088 170.276 55.088ZM170.276 69.312C171.358 69.312 172.236 69.0507 172.908 68.528C173.58 67.9867 173.916 67.2307 173.916 66.26C173.916 65.2893 173.58 64.5427 172.908 64.02C172.236 63.4787 171.358 63.208 170.276 63.208C169.174 63.208 168.288 63.4787 167.616 64.02C166.944 64.5427 166.608 65.2893 166.608 66.26C166.608 67.2307 166.944 67.9867 167.616 68.528C168.288 69.0507 169.174 69.312 170.276 69.312Z" fill="black"/>
<path d="M147.504 103L146.706 100.802H142.296L141.498 103H140.112L143.766 93.2H145.236L148.89 103H147.504ZM142.744 99.584H146.258L144.494 94.754L142.744 99.584ZM154.687 96H156.003L153.203 103H151.775L148.975 96H150.291L152.489 101.698L154.687 96ZM157.753 100.06C157.875 100.685 158.159 101.171 158.607 101.516C159.065 101.861 159.625 102.034 160.287 102.034C161.211 102.034 161.883 101.693 162.303 101.012L163.339 101.6C162.658 102.655 161.631 103.182 160.259 103.182C159.149 103.182 158.243 102.837 157.543 102.146C156.853 101.446 156.507 100.564 156.507 99.5C156.507 98.4453 156.848 97.568 157.529 96.868C158.211 96.168 159.093 95.818 160.175 95.818C161.202 95.818 162.037 96.182 162.681 96.91C163.335 97.6287 163.661 98.4967 163.661 99.514C163.661 99.6913 163.647 99.8733 163.619 100.06H157.753ZM160.175 96.966C159.522 96.966 158.981 97.1527 158.551 97.526C158.122 97.89 157.856 98.38 157.753 98.996H162.429C162.327 98.3333 162.065 97.8293 161.645 97.484C161.225 97.1387 160.735 96.966 160.175 96.966ZM166.419 97.176C166.821 96.308 167.549 95.874 168.603 95.874V97.148C168.006 97.12 167.493 97.2787 167.063 97.624C166.634 97.9693 166.419 98.5247 166.419 99.29V103H165.201V96H166.419V97.176ZM175.348 96H176.566V103H175.348V101.796C174.742 102.72 173.86 103.182 172.702 103.182C171.722 103.182 170.887 102.827 170.196 102.118C169.506 101.399 169.16 100.527 169.16 99.5C169.16 98.4733 169.506 97.6053 170.196 96.896C170.887 96.1773 171.722 95.818 172.702 95.818C173.86 95.818 174.742 96.28 175.348 97.204V96ZM172.856 102.006C173.566 102.006 174.158 101.768 174.634 101.292C175.11 100.807 175.348 100.209 175.348 99.5C175.348 98.7907 175.11 98.198 174.634 97.722C174.158 97.2367 173.566 96.994 172.856 96.994C172.156 96.994 171.568 97.2367 171.092 97.722C170.616 98.198 170.378 98.7907 170.378 99.5C170.378 100.209 170.616 100.807 171.092 101.292C171.568 101.768 172.156 102.006 172.856 102.006ZM184.362 96H185.566V102.706C185.566 103.742 185.216 104.545 184.516 105.114C183.816 105.693 182.976 105.982 181.996 105.982C181.212 105.982 180.535 105.833 179.966 105.534C179.396 105.245 178.967 104.825 178.678 104.274L179.742 103.672C180.124 104.456 180.885 104.848 182.024 104.848C182.752 104.848 183.321 104.657 183.732 104.274C184.152 103.891 184.362 103.369 184.362 102.706V101.712C183.746 102.645 182.868 103.112 181.73 103.112C180.731 103.112 179.886 102.757 179.196 102.048C178.505 101.339 178.16 100.475 178.16 99.458C178.16 98.4407 178.505 97.582 179.196 96.882C179.886 96.1727 180.731 95.818 181.73 95.818C182.878 95.818 183.755 96.28 184.362 97.204V96ZM180.092 101.236C180.568 101.712 181.16 101.95 181.87 101.95C182.579 101.95 183.172 101.712 183.648 101.236C184.124 100.76 184.362 100.167 184.362 99.458C184.362 98.758 184.124 98.17 183.648 97.694C183.172 97.218 182.579 96.98 181.87 96.98C181.16 96.98 180.568 97.218 180.092 97.694C179.616 98.17 179.378 98.758 179.378 99.458C179.378 100.167 179.616 100.76 180.092 101.236ZM188.405 100.06C188.526 100.685 188.811 101.171 189.259 101.516C189.716 101.861 190.276 102.034 190.939 102.034C191.863 102.034 192.535 101.693 192.955 101.012L193.991 101.6C193.31 102.655 192.283 103.182 190.911 103.182C189.8 103.182 188.895 102.837 188.195 102.146C187.504 101.446 187.159 100.564 187.159 99.5C187.159 98.4453 187.5 97.568 188.181 96.868C188.862 96.168 189.744 95.818 190.827 95.818C191.854 95.818 192.689 96.182 193.333 96.91C193.986 97.6287 194.313 98.4967 194.313 99.514C194.313 99.6913 194.299 99.8733 194.271 100.06H188.405ZM190.827 96.966C190.174 96.966 189.632 97.1527 189.203 97.526C188.774 97.89 188.508 98.38 188.405 98.996H193.081C192.978 98.3333 192.717 97.8293 192.297 97.484C191.877 97.1387 191.387 96.966 190.827 96.966ZM207.053 95.818C207.837 95.818 208.472 96.0747 208.957 96.588C209.443 97.092 209.685 97.778 209.685 98.646V103H208.467V98.688C208.467 98.1467 208.327 97.7267 208.047 97.428C207.767 97.1293 207.394 96.98 206.927 96.98C206.405 96.98 205.985 97.1573 205.667 97.512C205.359 97.8573 205.205 98.3893 205.205 99.108V103H203.987V98.688C203.987 98.1467 203.852 97.7267 203.581 97.428C203.32 97.1293 202.961 96.98 202.503 96.98C201.99 96.98 201.561 97.1573 201.215 97.512C200.879 97.8667 200.711 98.3987 200.711 99.108V103H199.493V96H200.711V96.938C201.187 96.1913 201.883 95.818 202.797 95.818C203.74 95.818 204.426 96.2147 204.855 97.008C205.341 96.2147 206.073 95.818 207.053 95.818ZM217.31 96H218.528V103H217.31V101.796C216.703 102.72 215.821 103.182 214.664 103.182C213.684 103.182 212.849 102.827 212.158 102.118C211.467 101.399 211.122 100.527 211.122 99.5C211.122 98.4733 211.467 97.6053 212.158 96.896C212.849 96.1773 213.684 95.818 214.664 95.818C215.821 95.818 216.703 96.28 217.31 97.204V96ZM214.818 102.006C215.527 102.006 216.12 101.768 216.596 101.292C217.072 100.807 217.31 100.209 217.31 99.5C217.31 98.7907 217.072 98.198 216.596 97.722C216.12 97.2367 215.527 96.994 214.818 96.994C214.118 96.994 213.53 97.2367 213.054 97.722C212.578 98.198 212.34 98.7907 212.34 99.5C212.34 100.209 212.578 100.807 213.054 101.292C213.53 101.768 214.118 102.006 214.818 102.006ZM221.731 97.176C222.133 96.308 222.861 95.874 223.915 95.874V97.148C223.318 97.12 222.805 97.2787 222.375 97.624C221.946 97.9693 221.731 98.5247 221.731 99.29V103H220.513V96H221.731V97.176ZM231.169 103H229.657L226.465 99.682V103H225.247V93.2H226.465V99.094L229.489 96H231.057L227.711 99.388L231.169 103Z" fill="#A6ACBE"/>
<circle cx="75" cy="75" r="35" fill="#33D69F" fill-opacity="0.07"/>
<path d="M66 79L71 74" stroke="#21B8C7" stroke-width="2" stroke-linecap="round" stroke-linejoin="round"/>
<path d="M72 74C72.5523 74 73 73.5523 73 73C73 72.4477 72.5523 72 72 72C71.4477 72 71 72.4477 71 73C71 73.5523 71.4477 74 72 74Z" stroke="#21B8C7" stroke-width="2" stroke-linecap="round" stroke-linejoin="round"/>
<path d="M77 79C77.5523 79 78 78.5523 78 78C78 77.4477 77.5523 77 77 77C76.4477 77 76 77.4477 76 78C76 78.5523 76.4477 79 77 79Z" stroke="#21B8C7" stroke-width="2" stroke-linecap="round" stroke-linejoin="round"/>
<path d="M78 77L84 71M73 74L76 77L73 74Z" stroke="#21B8C7" stroke-width="2" stroke-linecap="round" stroke-linejoin="round"/>
</svg>
