<svg width="225" height="50" viewBox="0 0 225 50" fill="none" xmlns="http://www.w3.org/2000/svg">
<rect width="225" height="50" rx="5" fill="#00B2FF"/>
<path d="M36 26.1429H29.1429V33H26.8571V26.1429H20V23.8571H26.8571V17H29.1429V23.8571H36V26.1429Z" fill="white"/>
<path d="M57.951 30.182C56.4763 30.182 55.2537 29.6967 54.283 28.726C53.3123 27.746 52.827 26.5373 52.827 25.1C52.827 23.6627 53.3123 22.4587 54.283 21.488C55.2537 20.508 56.4763 20.018 57.951 20.018C58.8377 20.018 59.6543 20.228 60.401 20.648C61.157 21.068 61.745 21.6373 62.165 22.356L60.765 23.168C60.5037 22.6827 60.121 22.3 59.617 22.02C59.1223 21.7307 58.567 21.586 57.951 21.586C56.9057 21.586 56.0563 21.9173 55.403 22.58C54.759 23.2427 54.437 24.0827 54.437 25.1C54.437 26.1173 54.759 26.9573 55.403 27.62C56.0563 28.2827 56.9057 28.614 57.951 28.614C58.567 28.614 59.127 28.474 59.631 28.194C60.135 27.9047 60.513 27.5173 60.765 27.032L62.165 27.83C61.7543 28.5487 61.171 29.1227 60.415 29.552C59.6683 29.972 58.847 30.182 57.951 30.182ZM65.1249 24.176C65.5076 23.308 66.2262 22.874 67.2809 22.874V24.512C66.7022 24.4747 66.1982 24.6147 65.7689 24.932C65.3396 25.24 65.1249 25.7533 65.1249 26.472V30H63.6129V23H65.1249V24.176ZM69.3999 27.144C69.5119 27.676 69.7686 28.0867 70.1699 28.376C70.5713 28.656 71.0613 28.796 71.6399 28.796C72.4426 28.796 73.0446 28.5067 73.4459 27.928L74.6919 28.656C74.0013 29.6733 72.9793 30.182 71.6259 30.182C70.4873 30.182 69.5679 29.8367 68.8679 29.146C68.1679 28.446 67.8179 27.564 67.8179 26.5C67.8179 25.4547 68.1633 24.582 68.8539 23.882C69.5446 23.1727 70.4313 22.818 71.5139 22.818C72.5406 22.818 73.3806 23.1773 74.0339 23.896C74.6966 24.6147 75.0279 25.4873 75.0279 26.514C75.0279 26.6727 75.0093 26.8827 74.9719 27.144H69.3999ZM69.3859 25.912H73.5019C73.3993 25.3427 73.1613 24.9133 72.7879 24.624C72.4239 24.3347 71.9946 24.19 71.4999 24.19C70.9399 24.19 70.4733 24.344 70.0999 24.652C69.7266 24.96 69.4886 25.38 69.3859 25.912ZM82.0014 23H83.5134V30H82.0014V28.992C81.432 29.7853 80.6154 30.182 79.5513 30.182C78.59 30.182 77.7687 29.8273 77.0873 29.118C76.406 28.3993 76.0653 27.5267 76.0653 26.5C76.0653 25.464 76.406 24.5913 77.0873 23.882C77.7687 23.1727 78.59 22.818 79.5513 22.818C80.6154 22.818 81.432 23.21 82.0014 23.994V23ZM78.2073 28.11C78.6273 28.53 79.1547 28.74 79.7894 28.74C80.424 28.74 80.9514 28.53 81.3714 28.11C81.7914 27.6807 82.0014 27.144 82.0014 26.5C82.0014 25.856 81.7914 25.324 81.3714 24.904C80.9514 24.4747 80.424 24.26 79.7894 24.26C79.1547 24.26 78.6273 24.4747 78.2073 24.904C77.7873 25.324 77.5773 25.856 77.5773 26.5C77.5773 27.144 77.7873 27.6807 78.2073 28.11ZM89.3217 24.456H87.5857V27.816C87.5857 28.1053 87.651 28.3153 87.7817 28.446C87.9124 28.5673 88.1037 28.6373 88.3557 28.656C88.617 28.6653 88.939 28.6607 89.3217 28.642V30C88.1644 30.14 87.3337 30.042 86.8297 29.706C86.3257 29.3607 86.0737 28.7307 86.0737 27.816V24.456H84.7857V23H86.0737V21.488L87.5857 21.04V23H89.3217V24.456ZM91.7359 27.144C91.8479 27.676 92.1046 28.0867 92.5059 28.376C92.9073 28.656 93.3973 28.796 93.9759 28.796C94.7786 28.796 95.3806 28.5067 95.7819 27.928L97.0279 28.656C96.3373 29.6733 95.3153 30.182 93.9619 30.182C92.8233 30.182 91.9039 29.8367 91.2039 29.146C90.5039 28.446 90.1539 27.564 90.1539 26.5C90.1539 25.4547 90.4993 24.582 91.1899 23.882C91.8806 23.1727 92.7673 22.818 93.8499 22.818C94.8766 22.818 95.7166 23.1773 96.3699 23.896C97.0326 24.6147 97.3639 25.4873 97.3639 26.514C97.3639 26.6727 97.3453 26.8827 97.3079 27.144H91.7359ZM91.7219 25.912H95.8379C95.7353 25.3427 95.4973 24.9133 95.1239 24.624C94.7599 24.3347 94.3306 24.19 93.8359 24.19C93.2759 24.19 92.8093 24.344 92.4359 24.652C92.0626 24.96 91.8246 25.38 91.7219 25.912ZM106.156 22.818C106.959 22.818 107.608 23.0747 108.102 23.588C108.597 24.1013 108.844 24.806 108.844 25.702V30H107.332V25.856C107.332 25.3333 107.192 24.932 106.912 24.652C106.632 24.372 106.25 24.232 105.764 24.232C105.232 24.232 104.803 24.4 104.476 24.736C104.15 25.0627 103.986 25.5667 103.986 26.248V30H102.474V23H103.986V23.896C104.444 23.1773 105.167 22.818 106.156 22.818ZM111.802 27.144C111.914 27.676 112.171 28.0867 112.572 28.376C112.974 28.656 113.464 28.796 114.042 28.796C114.845 28.796 115.447 28.5067 115.848 27.928L117.094 28.656C116.404 29.6733 115.382 30.182 114.028 30.182C112.89 30.182 111.97 29.8367 111.27 29.146C110.57 28.446 110.22 27.564 110.22 26.5C110.22 25.4547 110.566 24.582 111.256 23.882C111.947 23.1727 112.834 22.818 113.916 22.818C114.943 22.818 115.783 23.1773 116.436 23.896C117.099 24.6147 117.43 25.4873 117.43 26.514C117.43 26.6727 117.412 26.8827 117.374 27.144H111.802ZM111.788 25.912H115.904C115.802 25.3427 115.564 24.9133 115.19 24.624C114.826 24.3347 114.397 24.19 113.902 24.19C113.342 24.19 112.876 24.344 112.502 24.652C112.129 24.96 111.891 25.38 111.788 25.912ZM126.691 23H128.287L126.089 30H124.605L123.149 25.282L121.679 30H120.195L117.997 23H119.593L120.951 27.83L122.421 23H123.863L125.319 27.83L126.691 23ZM138.725 20.2H140.237V30H138.725V28.992C138.156 29.7853 137.339 30.182 136.275 30.182C135.314 30.182 134.492 29.8273 133.811 29.118C133.13 28.3993 132.789 27.5267 132.789 26.5C132.789 25.464 133.13 24.5913 133.811 23.882C134.492 23.1727 135.314 22.818 136.275 22.818C137.339 22.818 138.156 23.21 138.725 23.994V20.2ZM134.931 28.11C135.351 28.53 135.878 28.74 136.513 28.74C137.148 28.74 137.675 28.53 138.095 28.11C138.515 27.6807 138.725 27.144 138.725 26.5C138.725 25.856 138.515 25.324 138.095 24.904C137.675 24.4747 137.148 24.26 136.513 24.26C135.878 24.26 135.351 24.4747 134.931 24.904C134.511 25.324 134.301 25.856 134.301 26.5C134.301 27.144 134.511 27.6807 134.931 28.11ZM147.683 23H149.195V30H147.683V28.992C147.114 29.7853 146.297 30.182 145.233 30.182C144.272 30.182 143.451 29.8273 142.769 29.118C142.088 28.3993 141.747 27.5267 141.747 26.5C141.747 25.464 142.088 24.5913 142.769 23.882C143.451 23.1727 144.272 22.818 145.233 22.818C146.297 22.818 147.114 23.21 147.683 23.994V23ZM143.889 28.11C144.309 28.53 144.837 28.74 145.471 28.74C146.106 28.74 146.633 28.53 147.053 28.11C147.473 27.6807 147.683 27.144 147.683 26.5C147.683 25.856 147.473 25.324 147.053 24.904C146.633 24.4747 146.106 24.26 145.471 24.26C144.837 24.26 144.309 24.4747 143.889 24.904C143.469 25.324 143.259 25.856 143.259 26.5C143.259 27.144 143.469 27.6807 143.889 28.11ZM152.415 24.932C152.415 25.1653 152.541 25.352 152.793 25.492C153.054 25.6227 153.367 25.7393 153.731 25.842C154.104 25.9353 154.477 26.0473 154.851 26.178C155.224 26.3087 155.537 26.5327 155.789 26.85C156.05 27.158 156.181 27.55 156.181 28.026C156.181 28.698 155.919 29.2253 155.397 29.608C154.883 29.9907 154.235 30.182 153.451 30.182C152.76 30.182 152.167 30.0373 151.673 29.748C151.178 29.4587 150.819 29.0573 150.595 28.544L151.897 27.788C152.139 28.46 152.657 28.796 153.451 28.796C154.244 28.796 154.641 28.5347 154.641 28.012C154.641 27.788 154.51 27.606 154.249 27.466C153.997 27.326 153.684 27.2093 153.311 27.116C152.947 27.0133 152.578 26.8967 152.205 26.766C151.831 26.6353 151.514 26.4207 151.253 26.122C151.001 25.814 150.875 25.4267 150.875 24.96C150.875 24.316 151.117 23.798 151.603 23.406C152.097 23.014 152.709 22.818 153.437 22.818C154.015 22.818 154.529 22.9487 154.977 23.21C155.434 23.462 155.784 23.8167 156.027 24.274L154.753 24.988C154.51 24.456 154.071 24.19 153.437 24.19C153.147 24.19 152.905 24.2553 152.709 24.386C152.513 24.5073 152.415 24.6893 152.415 24.932ZM161.25 22.818C162.052 22.818 162.701 23.0747 163.196 23.588C163.69 24.1013 163.938 24.806 163.938 25.702V30H162.426V25.856C162.426 25.3333 162.286 24.932 162.006 24.652C161.726 24.372 161.343 24.232 160.858 24.232C160.326 24.232 159.896 24.4 159.57 24.736C159.243 25.0627 159.08 25.5667 159.08 26.248V30H157.568V20.2H159.08V23.896C159.537 23.1773 160.26 22.818 161.25 22.818ZM169.668 22.818C170.629 22.818 171.45 23.1727 172.132 23.882C172.813 24.5913 173.154 25.464 173.154 26.5C173.154 27.5267 172.813 28.3993 172.132 29.118C171.45 29.8273 170.629 30.182 169.668 30.182C168.604 30.182 167.787 29.7853 167.218 28.992V30H165.706V20.2H167.218V23.994C167.787 23.21 168.604 22.818 169.668 22.818ZM167.848 28.11C168.268 28.53 168.795 28.74 169.43 28.74C170.064 28.74 170.592 28.53 171.012 28.11C171.432 27.6807 171.642 27.144 171.642 26.5C171.642 25.856 171.432 25.324 171.012 24.904C170.592 24.4747 170.064 24.26 169.43 24.26C168.795 24.26 168.268 24.4747 167.848 24.904C167.428 25.324 167.218 25.856 167.218 26.5C167.218 27.144 167.428 27.6807 167.848 28.11ZM177.968 30.182C176.941 30.182 176.069 29.8273 175.35 29.118C174.631 28.4087 174.272 27.536 174.272 26.5C174.272 25.464 174.631 24.5913 175.35 23.882C176.069 23.1727 176.941 22.818 177.968 22.818C179.004 22.818 179.877 23.1727 180.586 23.882C181.305 24.5913 181.664 25.464 181.664 26.5C181.664 27.536 181.305 28.4087 180.586 29.118C179.877 29.8273 179.004 30.182 177.968 30.182ZM176.414 28.082C176.834 28.502 177.352 28.712 177.968 28.712C178.584 28.712 179.102 28.502 179.522 28.082C179.942 27.662 180.152 27.1347 180.152 26.5C180.152 25.8653 179.942 25.338 179.522 24.918C179.102 24.498 178.584 24.288 177.968 24.288C177.352 24.288 176.834 24.498 176.414 24.918C175.994 25.338 175.784 25.8653 175.784 26.5C175.784 27.1347 175.994 27.662 176.414 28.082ZM188.715 23H190.227V30H188.715V28.992C188.146 29.7853 187.329 30.182 186.265 30.182C185.304 30.182 184.483 29.8273 183.801 29.118C183.12 28.3993 182.779 27.5267 182.779 26.5C182.779 25.464 183.12 24.5913 183.801 23.882C184.483 23.1727 185.304 22.818 186.265 22.818C187.329 22.818 188.146 23.21 188.715 23.994V23ZM184.921 28.11C185.341 28.53 185.869 28.74 186.503 28.74C187.138 28.74 187.665 28.53 188.085 28.11C188.505 27.6807 188.715 27.144 188.715 26.5C188.715 25.856 188.505 25.324 188.085 24.904C187.665 24.4747 187.138 24.26 186.503 24.26C185.869 24.26 185.341 24.4747 184.921 24.904C184.501 25.324 184.291 25.856 184.291 26.5C184.291 27.144 184.501 27.6807 184.921 28.11ZM193.642 24.176C194.024 23.308 194.743 22.874 195.798 22.874V24.512C195.219 24.4747 194.715 24.6147 194.286 24.932C193.856 25.24 193.642 25.7533 193.642 26.472V30H192.13V23H193.642V24.176ZM202.271 20.2H203.783V30H202.271V28.992C201.701 29.7853 200.885 30.182 199.821 30.182C198.859 30.182 198.038 29.8273 197.357 29.118C196.675 28.3993 196.335 27.5267 196.335 26.5C196.335 25.464 196.675 24.5913 197.357 23.882C198.038 23.1727 198.859 22.818 199.821 22.818C200.885 22.818 201.701 23.21 202.271 23.994V20.2ZM198.477 28.11C198.897 28.53 199.424 28.74 200.059 28.74C200.693 28.74 201.221 28.53 201.641 28.11C202.061 27.6807 202.271 27.144 202.271 26.5C202.271 25.856 202.061 25.324 201.641 24.904C201.221 24.4747 200.693 24.26 200.059 24.26C199.424 24.26 198.897 24.4747 198.477 24.904C198.057 25.324 197.847 25.856 197.847 26.5C197.847 27.144 198.057 27.6807 198.477 28.11Z" fill="white"/>
</svg>
