<svg width="395" height="154" viewBox="0 0 395 154" fill="none" xmlns="http://www.w3.org/2000/svg">
<rect width="395" height="154" rx="10" fill="#EDEDF7"/>
<rect width="395" height="151" rx="10" fill="white"/>
<path d="M151.844 61.808C153.767 62.872 154.728 64.4587 154.728 66.568C154.728 68.36 154.103 69.7787 152.852 70.824C151.601 71.8507 149.94 72.364 147.868 72.364C145.796 72.364 144.125 71.8507 142.856 70.824C141.605 69.7787 140.98 68.36 140.98 66.568C140.98 65.56 141.232 64.6453 141.736 63.824C142.24 62.984 142.949 62.312 143.864 61.808C142.389 60.8373 141.652 59.456 141.652 57.664C141.652 55.872 142.249 54.4907 143.444 53.52C144.639 52.5307 146.113 52.036 147.868 52.036C149.604 52.036 151.069 52.5307 152.264 53.52C153.477 54.4907 154.084 55.872 154.084 57.664C154.084 59.456 153.337 60.8373 151.844 61.808ZM147.868 55.088C146.991 55.088 146.272 55.3213 145.712 55.788C145.152 56.2547 144.872 56.9267 144.872 57.804C144.872 58.644 145.152 59.3067 145.712 59.792C146.291 60.2773 147.009 60.52 147.868 60.52C148.708 60.52 149.417 60.2773 149.996 59.792C150.575 59.3067 150.864 58.644 150.864 57.804C150.864 56.9267 150.575 56.2547 149.996 55.788C149.436 55.3213 148.727 55.088 147.868 55.088ZM147.868 69.312C148.951 69.312 149.828 69.0507 150.5 68.528C151.172 67.9867 151.508 67.2307 151.508 66.26C151.508 65.2893 151.172 64.5427 150.5 64.02C149.828 63.4787 148.951 63.208 147.868 63.208C146.767 63.208 145.88 63.4787 145.208 64.02C144.536 64.5427 144.2 65.2893 144.2 66.26C144.2 67.2307 144.536 67.9867 145.208 68.528C145.88 69.0507 146.767 69.312 147.868 69.312ZM164.917 60.408C166.336 60.744 167.484 61.4067 168.361 62.396C169.257 63.3667 169.705 64.5893 169.705 66.064C169.705 68.024 169.042 69.564 167.717 70.684C166.392 71.804 164.768 72.364 162.845 72.364C161.352 72.364 160.008 72.0187 158.813 71.328C157.637 70.6373 156.788 69.6293 156.265 68.304L159.009 66.708C159.588 68.388 160.866 69.228 162.845 69.228C163.965 69.228 164.852 68.948 165.505 68.388C166.158 67.8093 166.485 67.0347 166.485 66.064C166.485 65.0933 166.158 64.328 165.505 63.768C164.852 63.208 163.965 62.928 162.845 62.928H162.117L160.829 60.996L165.057 55.424H156.853V52.4H168.893V55.144L164.917 60.408ZM179.359 59.708C178.5 60.5667 177.417 60.996 176.111 60.996C174.804 60.996 173.712 60.5667 172.835 59.708C171.957 58.8307 171.519 57.7667 171.519 56.516C171.519 55.2653 171.957 54.2107 172.835 53.352C173.712 52.4747 174.804 52.036 176.111 52.036C177.417 52.036 178.5 52.4653 179.359 53.324C180.236 54.1827 180.675 55.2467 180.675 56.516C180.675 57.7667 180.236 58.8307 179.359 59.708ZM176.083 58.532C176.68 58.532 177.165 58.336 177.539 57.944C177.912 57.552 178.099 57.076 178.099 56.516C178.099 55.9373 177.912 55.452 177.539 55.06C177.165 54.668 176.68 54.472 176.083 54.472C175.504 54.472 175.028 54.668 174.655 55.06C174.281 55.452 174.095 55.9373 174.095 56.516C174.095 57.076 174.281 57.552 174.655 57.944C175.028 58.336 175.504 58.532 176.083 58.532ZM173.171 69.116L186.079 54.752L187.591 55.62L174.683 70.012L173.171 69.116ZM185.071 72.336C183.764 72.336 182.672 71.9067 181.795 71.048C180.917 70.1707 180.479 69.1067 180.479 67.856C180.479 66.6053 180.917 65.5507 181.795 64.692C182.672 63.8147 183.764 63.376 185.071 63.376C186.359 63.376 187.441 63.8147 188.319 64.692C189.196 65.5507 189.635 66.6053 189.635 67.856C189.635 69.1067 189.196 70.1707 188.319 71.048C187.441 71.9067 186.359 72.336 185.071 72.336ZM185.043 69.872C185.64 69.872 186.125 69.676 186.499 69.284C186.872 68.892 187.059 68.416 187.059 67.856C187.059 67.2773 186.872 66.792 186.499 66.4C186.125 66.008 185.64 65.812 185.043 65.812C184.464 65.812 183.988 66.008 183.615 66.4C183.241 66.792 183.055 67.2773 183.055 67.856C183.055 68.416 183.241 68.892 183.615 69.284C183.988 69.676 184.464 69.872 185.043 69.872Z" fill="black"/>
<path d="M146.692 94.432H142.352V97.61H146.51V98.842H142.352V103H141.05V93.2H146.692V94.432ZM148.899 94.726C148.665 94.726 148.469 94.6467 148.311 94.488C148.152 94.3293 148.073 94.138 148.073 93.914C148.073 93.69 148.152 93.4987 148.311 93.34C148.469 93.172 148.665 93.088 148.899 93.088C149.123 93.088 149.314 93.172 149.473 93.34C149.631 93.4987 149.711 93.69 149.711 93.914C149.711 94.138 149.631 94.3293 149.473 94.488C149.314 94.6467 149.123 94.726 148.899 94.726ZM148.283 103V96H149.501V103H148.283ZM154.985 95.818C155.806 95.818 156.464 96.0793 156.959 96.602C157.454 97.1153 157.701 97.8153 157.701 98.702V103H156.483V98.772C156.483 98.2027 156.329 97.764 156.021 97.456C155.713 97.1387 155.288 96.98 154.747 96.98C154.14 96.98 153.65 97.1713 153.277 97.554C152.904 97.9273 152.717 98.506 152.717 99.29V103H151.499V96H152.717V97.008C153.212 96.2147 153.968 95.818 154.985 95.818ZM160.157 94.726C159.924 94.726 159.728 94.6467 159.569 94.488C159.411 94.3293 159.331 94.138 159.331 93.914C159.331 93.69 159.411 93.4987 159.569 93.34C159.728 93.172 159.924 93.088 160.157 93.088C160.381 93.088 160.573 93.172 160.731 93.34C160.89 93.4987 160.969 93.69 160.969 93.914C160.969 94.138 160.89 94.3293 160.731 94.488C160.573 94.6467 160.381 94.726 160.157 94.726ZM159.541 103V96H160.759V103H159.541ZM163.794 97.89C163.794 98.1607 163.929 98.38 164.2 98.548C164.47 98.7067 164.797 98.8373 165.18 98.94C165.562 99.0333 165.945 99.1453 166.328 99.276C166.71 99.3973 167.037 99.612 167.308 99.92C167.578 100.219 167.714 100.606 167.714 101.082C167.714 101.717 167.466 102.225 166.972 102.608C166.486 102.991 165.861 103.182 165.096 103.182C164.414 103.182 163.831 103.033 163.346 102.734C162.86 102.435 162.515 102.039 162.31 101.544L163.36 100.942C163.472 101.278 163.682 101.544 163.99 101.74C164.298 101.936 164.666 102.034 165.096 102.034C165.497 102.034 165.828 101.959 166.09 101.81C166.351 101.651 166.482 101.409 166.482 101.082C166.482 100.811 166.346 100.597 166.076 100.438C165.805 100.27 165.478 100.139 165.096 100.046C164.713 99.9433 164.33 99.8267 163.948 99.696C163.565 99.5653 163.238 99.3507 162.968 99.052C162.697 98.7533 162.562 98.3707 162.562 97.904C162.562 97.2973 162.795 96.798 163.262 96.406C163.738 96.014 164.33 95.818 165.04 95.818C165.609 95.818 166.113 95.9487 166.552 96.21C167 96.462 167.336 96.8167 167.56 97.274L166.538 97.848C166.286 97.2507 165.786 96.952 165.04 96.952C164.694 96.952 164.4 97.036 164.158 97.204C163.915 97.3627 163.794 97.5913 163.794 97.89ZM172.714 95.818C173.535 95.818 174.193 96.0793 174.688 96.602C175.182 97.1153 175.43 97.8153 175.43 98.702V103H174.212V98.772C174.212 98.2027 174.058 97.764 173.75 97.456C173.442 97.1387 173.017 96.98 172.476 96.98C171.869 96.98 171.379 97.1713 171.006 97.554C170.632 97.9273 170.446 98.506 170.446 99.29V103H169.228V93.2H170.446V97.008C170.94 96.2147 171.696 95.818 172.714 95.818ZM178.124 100.06C178.245 100.685 178.53 101.171 178.978 101.516C179.435 101.861 179.995 102.034 180.658 102.034C181.582 102.034 182.254 101.693 182.674 101.012L183.71 101.6C183.029 102.655 182.002 103.182 180.63 103.182C179.519 103.182 178.614 102.837 177.914 102.146C177.223 101.446 176.878 100.564 176.878 99.5C176.878 98.4453 177.219 97.568 177.9 96.868C178.581 96.168 179.463 95.818 180.546 95.818C181.573 95.818 182.408 96.182 183.052 96.91C183.705 97.6287 184.032 98.4967 184.032 99.514C184.032 99.6913 184.018 99.8733 183.99 100.06H178.124ZM180.546 96.966C179.893 96.966 179.351 97.1527 178.922 97.526C178.493 97.89 178.227 98.38 178.124 98.996H182.8C182.697 98.3333 182.436 97.8293 182.016 97.484C181.596 97.1387 181.106 96.966 180.546 96.966ZM191.354 93.2H192.572V103H191.354V101.796C190.748 102.72 189.866 103.182 188.708 103.182C187.728 103.182 186.893 102.827 186.202 102.118C185.512 101.399 185.166 100.527 185.166 99.5C185.166 98.4733 185.512 97.6053 186.202 96.896C186.893 96.1773 187.728 95.818 188.708 95.818C189.866 95.818 190.748 96.28 191.354 97.204V93.2ZM188.862 102.006C189.572 102.006 190.164 101.768 190.64 101.292C191.116 100.807 191.354 100.209 191.354 99.5C191.354 98.7907 191.116 98.198 190.64 97.722C190.164 97.2367 189.572 96.994 188.862 96.994C188.162 96.994 187.574 97.2367 187.098 97.722C186.622 98.198 186.384 98.7907 186.384 99.5C186.384 100.209 186.622 100.807 187.098 101.292C187.574 101.768 188.162 102.006 188.862 102.006ZM201.684 95.818C202.505 95.818 203.163 96.0793 203.658 96.602C204.152 97.1153 204.4 97.8153 204.4 98.702V103H203.182V98.772C203.182 98.2027 203.028 97.764 202.72 97.456C202.412 97.1387 201.987 96.98 201.446 96.98C200.839 96.98 200.349 97.1713 199.976 97.554C199.602 97.9273 199.416 98.506 199.416 99.29V103H198.198V93.2H199.416V97.008C199.91 96.2147 200.666 95.818 201.684 95.818ZM212.148 102.118C211.429 102.827 210.557 103.182 209.53 103.182C208.503 103.182 207.631 102.827 206.912 102.118C206.203 101.409 205.848 100.536 205.848 99.5C205.848 98.464 206.203 97.5913 206.912 96.882C207.631 96.1727 208.503 95.818 209.53 95.818C210.557 95.818 211.429 96.1727 212.148 96.882C212.867 97.5913 213.226 98.464 213.226 99.5C213.226 100.536 212.867 101.409 212.148 102.118ZM209.53 101.992C210.23 101.992 210.818 101.754 211.294 101.278C211.77 100.802 212.008 100.209 212.008 99.5C212.008 98.7907 211.77 98.198 211.294 97.722C210.818 97.246 210.23 97.008 209.53 97.008C208.839 97.008 208.256 97.246 207.78 97.722C207.304 98.198 207.066 98.7907 207.066 99.5C207.066 100.209 207.304 100.802 207.78 101.278C208.256 101.754 208.839 101.992 209.53 101.992ZM222.362 95.818C223.146 95.818 223.781 96.0747 224.266 96.588C224.751 97.092 224.994 97.778 224.994 98.646V103H223.776V98.688C223.776 98.1467 223.636 97.7267 223.356 97.428C223.076 97.1293 222.703 96.98 222.236 96.98C221.713 96.98 221.293 97.1573 220.976 97.512C220.668 97.8573 220.514 98.3893 220.514 99.108V103H219.296V98.688C219.296 98.1467 219.161 97.7267 218.89 97.428C218.629 97.1293 218.269 96.98 217.812 96.98C217.299 96.98 216.869 97.1573 216.524 97.512C216.188 97.8667 216.02 98.3987 216.02 99.108V103H214.802V96H216.02V96.938C216.496 96.1913 217.191 95.818 218.106 95.818C219.049 95.818 219.735 96.2147 220.164 97.008C220.649 96.2147 221.382 95.818 222.362 95.818ZM227.677 100.06C227.798 100.685 228.083 101.171 228.531 101.516C228.988 101.861 229.548 102.034 230.211 102.034C231.135 102.034 231.807 101.693 232.227 101.012L233.263 101.6C232.581 102.655 231.555 103.182 230.183 103.182C229.072 103.182 228.167 102.837 227.467 102.146C226.776 101.446 226.431 100.564 226.431 99.5C226.431 98.4453 226.771 97.568 227.453 96.868C228.134 96.168 229.016 95.818 230.099 95.818C231.125 95.818 231.961 96.182 232.605 96.91C233.258 97.6287 233.585 98.4967 233.585 99.514C233.585 99.6913 233.571 99.8733 233.543 100.06H227.677ZM230.099 96.966C229.445 96.966 228.904 97.1527 228.475 97.526C228.045 97.89 227.779 98.38 227.677 98.996H232.353C232.25 98.3333 231.989 97.8293 231.569 97.484C231.149 97.1387 230.659 96.966 230.099 96.966ZM243.097 96H244.371L242.201 103H240.955L239.317 97.82L237.679 103H236.433L234.263 96H235.537L237.077 101.32L238.729 96H239.905L241.557 101.334L243.097 96ZM251.399 102.118C250.681 102.827 249.808 103.182 248.781 103.182C247.755 103.182 246.882 102.827 246.163 102.118C245.454 101.409 245.099 100.536 245.099 99.5C245.099 98.464 245.454 97.5913 246.163 96.882C246.882 96.1727 247.755 95.818 248.781 95.818C249.808 95.818 250.681 96.1727 251.399 96.882C252.118 97.5913 252.477 98.464 252.477 99.5C252.477 100.536 252.118 101.409 251.399 102.118ZM248.781 101.992C249.481 101.992 250.069 101.754 250.545 101.278C251.021 100.802 251.259 100.209 251.259 99.5C251.259 98.7907 251.021 98.198 250.545 97.722C250.069 97.246 249.481 97.008 248.781 97.008C248.091 97.008 247.507 97.246 247.031 97.722C246.555 98.198 246.317 98.7907 246.317 99.5C246.317 100.209 246.555 100.802 247.031 101.278C247.507 101.754 248.091 101.992 248.781 101.992ZM255.271 97.176C255.673 96.308 256.401 95.874 257.455 95.874V97.148C256.858 97.12 256.345 97.2787 255.915 97.624C255.486 97.9693 255.271 98.5247 255.271 99.29V103H254.053V96H255.271V97.176ZM264.709 103H263.197L260.005 99.682V103H258.787V93.2H260.005V99.094L263.029 96H264.597L261.251 99.388L264.709 103ZM266.499 97.89C266.499 98.1607 266.634 98.38 266.905 98.548C267.175 98.7067 267.502 98.8373 267.885 98.94C268.267 99.0333 268.65 99.1453 269.033 99.276C269.415 99.3973 269.742 99.612 270.013 99.92C270.283 100.219 270.419 100.606 270.419 101.082C270.419 101.717 270.171 102.225 269.677 102.608C269.191 102.991 268.566 103.182 267.801 103.182C267.119 103.182 266.536 103.033 266.051 102.734C265.565 102.435 265.22 102.039 265.015 101.544L266.065 100.942C266.177 101.278 266.387 101.544 266.695 101.74C267.003 101.936 267.371 102.034 267.801 102.034C268.202 102.034 268.533 101.959 268.795 101.81C269.056 101.651 269.187 101.409 269.187 101.082C269.187 100.811 269.051 100.597 268.781 100.438C268.51 100.27 268.183 100.139 267.801 100.046C267.418 99.9433 267.035 99.8267 266.653 99.696C266.27 99.5653 265.943 99.3507 265.673 99.052C265.402 98.7533 265.267 98.3707 265.267 97.904C265.267 97.2973 265.5 96.798 265.967 96.406C266.443 96.014 267.035 95.818 267.745 95.818C268.314 95.818 268.818 95.9487 269.257 96.21C269.705 96.462 270.041 96.8167 270.265 97.274L269.243 97.848C268.991 97.2507 268.491 96.952 267.745 96.952C267.399 96.952 267.105 97.036 266.863 97.204C266.62 97.3627 266.499 97.5913 266.499 97.89Z" fill="#A6ACBE"/>
<circle cx="75" cy="75" r="35" fill="#4CB8FF" fill-opacity="0.07"/>
<path d="M82 66V84H71C70.2044 84 69.4413 83.6839 68.8787 83.1213C68.3161 82.5587 68 81.7956 68 81V69C68 68.2044 68.3161 67.4413 68.8787 66.8787C69.4413 66.3161 70.2044 66 71 66H82Z" stroke="#4CB8FF" stroke-width="2" stroke-linecap="square"/>
<path d="M68 81C68 80.2044 68.3161 79.4413 68.8787 78.8787C69.4413 78.3161 70.2044 78 71 78H82" stroke="#4CB8FF" stroke-width="2" stroke-linecap="square"/>
</svg>
