<svg width="36" height="52" viewBox="0 0 36 52" fill="none" xmlns="http://www.w3.org/2000/svg">
<path d="M35.4062 1.0625V5.90625L29.9375 7.3125C30.9375 8.875 31.4375 10.625 31.4375 12.5625C31.4375 16.3125 30.125 19.2396 27.5 21.3438C24.8958 23.4271 21.2708 24.4688 16.625 24.4688L14.9062 24.375L13.5 24.2188C12.5208 24.9688 12.0312 25.8021 12.0312 26.7188C12.0312 28.0938 13.7812 28.7812 17.2812 28.7812H23.2188C27.0521 28.7812 29.9688 29.6042 31.9688 31.25C33.9896 32.8958 35 35.3125 35 38.5C35 42.5833 33.2917 45.75 29.875 48C26.4792 50.25 21.5938 51.375 15.2188 51.375C10.3438 51.375 6.61458 50.5208 4.03125 48.8125C1.46875 47.125 0.1875 44.75 0.1875 41.6875C0.1875 39.5833 0.84375 37.8229 2.15625 36.4062C3.46875 34.9896 5.39583 33.9792 7.9375 33.375C6.95833 32.9583 6.10417 32.2812 5.375 31.3438C4.64583 30.3854 4.28125 29.375 4.28125 28.3125C4.28125 26.9792 4.66667 25.875 5.4375 25C6.20833 24.1042 7.32292 23.2292 8.78125 22.375C6.94792 21.5833 5.48958 20.3125 4.40625 18.5625C3.34375 16.8125 2.8125 14.75 2.8125 12.375C2.8125 8.5625 4.05208 5.61458 6.53125 3.53125C9.01042 1.44792 12.5521 0.40625 17.1562 0.40625C18.1354 0.40625 19.2917 0.5 20.625 0.6875C21.9792 0.854167 22.8438 0.979167 23.2188 1.0625H35.4062ZM8.4375 40.9375C8.4375 42.25 9.0625 43.2812 10.3125 44.0312C11.5833 44.7812 13.3542 45.1562 15.625 45.1562C19.0417 45.1562 21.7188 44.6875 23.6562 43.75C25.5938 42.8125 26.5625 41.5312 26.5625 39.9062C26.5625 38.5938 25.9896 37.6875 24.8438 37.1875C23.6979 36.6875 21.9271 36.4375 19.5312 36.4375H14.5938C12.8438 36.4375 11.375 36.8438 10.1875 37.6562C9.02083 38.4896 8.4375 39.5833 8.4375 40.9375ZM11.9062 12.5C11.9062 14.3958 12.3333 15.8958 13.1875 17C14.0625 18.1042 15.3854 18.6562 17.1562 18.6562C18.9479 18.6562 20.2604 18.1042 21.0938 17C21.9271 15.8958 22.3438 14.3958 22.3438 12.5C22.3438 8.29167 20.6146 6.1875 17.1562 6.1875C13.6562 6.1875 11.9062 8.29167 11.9062 12.5Z" fill="white"/>
</svg>
