<svg width="204" height="50" viewBox="0 0 204 50" fill="none" xmlns="http://www.w3.org/2000/svg">
<rect x="0.5" y="0.5" width="203" height="49" rx="4.5" stroke="#DADCE6"/>
<path d="M29.6667 20L33 23.3334M33.3452 18.6786L34.3215 19.6549C34.9724 20.3057 34.9724 21.361 34.3215 22.0119L24.6667 31.6667H21.3333V28.3334L30.9882 18.6786C31.639 18.0277 32.6943 18.0277 33.3452 18.6786Z" stroke="#00B2FF" stroke-width="2" stroke-linecap="square"/>
<path d="M62.9702 20.2V30H61.3602V23.014L58.3782 27.942H58.1822L55.2002 23V30H53.5902V20.2H55.3262L58.2802 25.1L61.2482 20.2H62.9702ZM70.5101 23H72.0221V30H70.5101V28.992C69.9408 29.7853 69.1241 30.182 68.0601 30.182C67.0988 30.182 66.2775 29.8273 65.5961 29.118C64.9148 28.3993 64.5741 27.5267 64.5741 26.5C64.5741 25.464 64.9148 24.5913 65.5961 23.882C66.2775 23.1727 67.0988 22.818 68.0601 22.818C69.1241 22.818 69.9408 23.21 70.5101 23.994V23ZM66.7161 28.11C67.1361 28.53 67.6635 28.74 68.2981 28.74C68.9328 28.74 69.4601 28.53 69.8801 28.11C70.3001 27.6807 70.5101 27.144 70.5101 26.5C70.5101 25.856 70.3001 25.324 69.8801 24.904C69.4601 24.4747 68.9328 24.26 68.2981 24.26C67.6635 24.26 67.1361 24.4747 66.7161 24.904C66.2961 25.324 66.0861 25.856 66.0861 26.5C66.0861 27.144 66.2961 27.6807 66.7161 28.11ZM77.6065 22.818C78.4092 22.818 79.0578 23.0747 79.5525 23.588C80.0472 24.1013 80.2945 24.806 80.2945 25.702V30H78.7825V25.856C78.7825 25.3333 78.6425 24.932 78.3625 24.652C78.0825 24.372 77.6998 24.232 77.2145 24.232C76.6825 24.232 76.2532 24.4 75.9265 24.736C75.5998 25.0627 75.4365 25.5667 75.4365 26.248V30H73.9245V23H75.4365V23.896C75.8938 23.1773 76.6172 22.818 77.6065 22.818ZM87.6065 23H89.1185V30H87.6065V28.992C87.0372 29.7853 86.2205 30.182 85.1565 30.182C84.1952 30.182 83.3739 29.8273 82.6925 29.118C82.0112 28.3993 81.6705 27.5267 81.6705 26.5C81.6705 25.464 82.0112 24.5913 82.6925 23.882C83.3739 23.1727 84.1952 22.818 85.1565 22.818C86.2205 22.818 87.0372 23.21 87.6065 23.994V23ZM83.8125 28.11C84.2325 28.53 84.7599 28.74 85.3945 28.74C86.0292 28.74 86.5565 28.53 86.9765 28.11C87.3965 27.6807 87.6065 27.144 87.6065 26.5C87.6065 25.856 87.3965 25.324 86.9765 24.904C86.5565 24.4747 86.0292 24.26 85.3945 24.26C84.7599 24.26 84.2325 24.4747 83.8125 24.904C83.3925 25.324 83.1825 25.856 83.1825 26.5C83.1825 27.144 83.3925 27.6807 83.8125 28.11ZM96.5929 23H98.0769V29.678C98.0769 30.742 97.7269 31.5587 97.0269 32.128C96.3269 32.6973 95.4776 32.982 94.4789 32.982C92.8642 32.982 91.7582 32.4173 91.1609 31.288L92.4629 30.532C92.8269 31.2507 93.5082 31.61 94.5069 31.61C95.1602 31.61 95.6689 31.4373 96.0329 31.092C96.4062 30.756 96.5929 30.2847 96.5929 29.678V28.824C96.0236 29.636 95.2116 30.042 94.1569 30.042C93.1676 30.042 92.3322 29.692 91.6509 28.992C90.9696 28.2827 90.6289 27.4287 90.6289 26.43C90.6289 25.4313 90.9696 24.582 91.6509 23.882C92.3322 23.1727 93.1676 22.818 94.1569 22.818C95.2116 22.818 96.0236 23.224 96.5929 24.036V23ZM92.7709 27.998C93.2002 28.418 93.7322 28.628 94.3669 28.628C95.0016 28.628 95.5289 28.418 95.9489 27.998C96.3782 27.578 96.5929 27.0553 96.5929 26.43C96.5929 25.8047 96.3782 25.282 95.9489 24.862C95.5289 24.442 95.0016 24.232 94.3669 24.232C93.7322 24.232 93.2002 24.442 92.7709 24.862C92.3509 25.282 92.1409 25.8047 92.1409 26.43C92.1409 27.0553 92.3509 27.578 92.7709 27.998ZM101.169 27.144C101.281 27.676 101.538 28.0867 101.939 28.376C102.341 28.656 102.831 28.796 103.409 28.796C104.212 28.796 104.814 28.5067 105.215 27.928L106.461 28.656C105.771 29.6733 104.749 30.182 103.395 30.182C102.257 30.182 101.337 29.8367 100.637 29.146C99.9373 28.446 99.5873 27.564 99.5873 26.5C99.5873 25.4547 99.9326 24.582 100.623 23.882C101.314 23.1727 102.201 22.818 103.283 22.818C104.31 22.818 105.15 23.1773 105.803 23.896C106.466 24.6147 106.797 25.4873 106.797 26.514C106.797 26.6727 106.779 26.8827 106.741 27.144H101.169ZM101.155 25.912H105.271C105.169 25.3427 104.931 24.9133 104.557 24.624C104.193 24.3347 103.764 24.19 103.269 24.19C102.709 24.19 102.243 24.344 101.869 24.652C101.496 24.96 101.258 25.38 101.155 25.912ZM117.452 20.2H118.964V30H117.452V28.992C116.882 29.7853 116.066 30.182 115.002 30.182C114.04 30.182 113.219 29.8273 112.538 29.118C111.856 28.3993 111.516 27.5267 111.516 26.5C111.516 25.464 111.856 24.5913 112.538 23.882C113.219 23.1727 114.04 22.818 115.002 22.818C116.066 22.818 116.882 23.21 117.452 23.994V20.2ZM113.658 28.11C114.078 28.53 114.605 28.74 115.24 28.74C115.874 28.74 116.402 28.53 116.822 28.11C117.242 27.6807 117.452 27.144 117.452 26.5C117.452 25.856 117.242 25.324 116.822 24.904C116.402 24.4747 115.874 24.26 115.24 24.26C114.605 24.26 114.078 24.4747 113.658 24.904C113.238 25.324 113.028 25.856 113.028 26.5C113.028 27.144 113.238 27.6807 113.658 28.11ZM126.41 23H127.922V30H126.41V28.992C125.841 29.7853 125.024 30.182 123.96 30.182C122.999 30.182 122.177 29.8273 121.496 29.118C120.815 28.3993 120.474 27.5267 120.474 26.5C120.474 25.464 120.815 24.5913 121.496 23.882C122.177 23.1727 122.999 22.818 123.96 22.818C125.024 22.818 125.841 23.21 126.41 23.994V23ZM122.616 28.11C123.036 28.53 123.563 28.74 124.198 28.74C124.833 28.74 125.36 28.53 125.78 28.11C126.2 27.6807 126.41 27.144 126.41 26.5C126.41 25.856 126.2 25.324 125.78 24.904C125.36 24.4747 124.833 24.26 124.198 24.26C123.563 24.26 123.036 24.4747 122.616 24.904C122.196 25.324 121.986 25.856 121.986 26.5C121.986 27.144 122.196 27.6807 122.616 28.11ZM131.141 24.932C131.141 25.1653 131.267 25.352 131.519 25.492C131.781 25.6227 132.093 25.7393 132.457 25.842C132.831 25.9353 133.204 26.0473 133.577 26.178C133.951 26.3087 134.263 26.5327 134.515 26.85C134.777 27.158 134.907 27.55 134.907 28.026C134.907 28.698 134.646 29.2253 134.123 29.608C133.61 29.9907 132.961 30.182 132.177 30.182C131.487 30.182 130.894 30.0373 130.399 29.748C129.905 29.4587 129.545 29.0573 129.321 28.544L130.623 27.788C130.866 28.46 131.384 28.796 132.177 28.796C132.971 28.796 133.367 28.5347 133.367 28.012C133.367 27.788 133.237 27.606 132.975 27.466C132.723 27.326 132.411 27.2093 132.037 27.116C131.673 27.0133 131.305 26.8967 130.931 26.766C130.558 26.6353 130.241 26.4207 129.979 26.122C129.727 25.814 129.601 25.4267 129.601 24.96C129.601 24.316 129.844 23.798 130.329 23.406C130.824 23.014 131.435 22.818 132.163 22.818C132.742 22.818 133.255 22.9487 133.703 23.21C134.161 23.462 134.511 23.8167 134.753 24.274L133.479 24.988C133.237 24.456 132.798 24.19 132.163 24.19C131.874 24.19 131.631 24.2553 131.435 24.386C131.239 24.5073 131.141 24.6893 131.141 24.932ZM139.976 22.818C140.779 22.818 141.428 23.0747 141.922 23.588C142.417 24.1013 142.664 24.806 142.664 25.702V30H141.152V25.856C141.152 25.3333 141.012 24.932 140.732 24.652C140.452 24.372 140.07 24.232 139.584 24.232C139.052 24.232 138.623 24.4 138.296 24.736C137.97 25.0627 137.806 25.5667 137.806 26.248V30H136.294V20.2H137.806V23.896C138.264 23.1773 138.987 22.818 139.976 22.818ZM148.395 22.818C149.356 22.818 150.177 23.1727 150.859 23.882C151.54 24.5913 151.881 25.464 151.881 26.5C151.881 27.5267 151.54 28.3993 150.859 29.118C150.177 29.8273 149.356 30.182 148.395 30.182C147.331 30.182 146.514 29.7853 145.945 28.992V30H144.433V20.2H145.945V23.994C146.514 23.21 147.331 22.818 148.395 22.818ZM146.575 28.11C146.995 28.53 147.522 28.74 148.157 28.74C148.791 28.74 149.319 28.53 149.739 28.11C150.159 27.6807 150.369 27.144 150.369 26.5C150.369 25.856 150.159 25.324 149.739 24.904C149.319 24.4747 148.791 24.26 148.157 24.26C147.522 24.26 146.995 24.4747 146.575 24.904C146.155 25.324 145.945 25.856 145.945 26.5C145.945 27.144 146.155 27.6807 146.575 28.11ZM156.695 30.182C155.668 30.182 154.796 29.8273 154.077 29.118C153.358 28.4087 152.999 27.536 152.999 26.5C152.999 25.464 153.358 24.5913 154.077 23.882C154.796 23.1727 155.668 22.818 156.695 22.818C157.731 22.818 158.604 23.1727 159.313 23.882C160.032 24.5913 160.391 25.464 160.391 26.5C160.391 27.536 160.032 28.4087 159.313 29.118C158.604 29.8273 157.731 30.182 156.695 30.182ZM155.141 28.082C155.561 28.502 156.079 28.712 156.695 28.712C157.311 28.712 157.829 28.502 158.249 28.082C158.669 27.662 158.879 27.1347 158.879 26.5C158.879 25.8653 158.669 25.338 158.249 24.918C157.829 24.498 157.311 24.288 156.695 24.288C156.079 24.288 155.561 24.498 155.141 24.918C154.721 25.338 154.511 25.8653 154.511 26.5C154.511 27.1347 154.721 27.662 155.141 28.082ZM167.442 23H168.954V30H167.442V28.992C166.873 29.7853 166.056 30.182 164.992 30.182C164.031 30.182 163.209 29.8273 162.528 29.118C161.847 28.3993 161.506 27.5267 161.506 26.5C161.506 25.464 161.847 24.5913 162.528 23.882C163.209 23.1727 164.031 22.818 164.992 22.818C166.056 22.818 166.873 23.21 167.442 23.994V23ZM163.648 28.11C164.068 28.53 164.595 28.74 165.23 28.74C165.865 28.74 166.392 28.53 166.812 28.11C167.232 27.6807 167.442 27.144 167.442 26.5C167.442 25.856 167.232 25.324 166.812 24.904C166.392 24.4747 165.865 24.26 165.23 24.26C164.595 24.26 164.068 24.4747 163.648 24.904C163.228 25.324 163.018 25.856 163.018 26.5C163.018 27.144 163.228 27.6807 163.648 28.11ZM172.368 24.176C172.751 23.308 173.47 22.874 174.524 22.874V24.512C173.946 24.4747 173.442 24.6147 173.012 24.932C172.583 25.24 172.368 25.7533 172.368 26.472V30H170.856V23H172.368V24.176ZM180.997 20.2H182.509V30H180.997V28.992C180.428 29.7853 179.611 30.182 178.547 30.182C177.586 30.182 176.765 29.8273 176.083 29.118C175.402 28.3993 175.061 27.5267 175.061 26.5C175.061 25.464 175.402 24.5913 176.083 23.882C176.765 23.1727 177.586 22.818 178.547 22.818C179.611 22.818 180.428 23.21 180.997 23.994V20.2ZM177.203 28.11C177.623 28.53 178.151 28.74 178.785 28.74C179.42 28.74 179.947 28.53 180.367 28.11C180.787 27.6807 180.997 27.144 180.997 26.5C180.997 25.856 180.787 25.324 180.367 24.904C179.947 24.4747 179.42 24.26 178.785 24.26C178.151 24.26 177.623 24.4747 177.203 24.904C176.783 25.324 176.573 25.856 176.573 26.5C176.573 27.144 176.783 27.6807 177.203 28.11Z" fill="#00B2FF"/>
</svg>
