<svg width="395" height="154" viewBox="0 0 395 154" fill="none" xmlns="http://www.w3.org/2000/svg">
<rect width="395" height="154" rx="10" fill="#EDEDF6"/>
<rect width="395" height="151" rx="10" fill="white"/>
<path d="M147.644 58.98C149.679 58.98 151.34 59.6053 152.628 60.856C153.916 62.088 154.56 63.6933 154.56 65.672C154.56 67.6507 153.916 69.2653 152.628 70.516C151.34 71.748 149.679 72.364 147.644 72.364C145.591 72.364 143.92 71.748 142.632 70.516C141.344 69.2653 140.7 67.6507 140.7 65.672C140.7 64.1787 141.092 62.8627 141.876 61.724L148.092 52.4H151.76L147.28 58.98H147.644ZM147.644 69.312C148.727 69.312 149.613 68.9853 150.304 68.332C150.995 67.66 151.34 66.7733 151.34 65.672C151.34 64.5707 150.995 63.6933 150.304 63.04C149.613 62.368 148.727 62.032 147.644 62.032C146.543 62.032 145.647 62.368 144.956 63.04C144.265 63.6933 143.92 64.5707 143.92 65.672C143.92 66.7733 144.265 67.66 144.956 68.332C145.647 68.9853 146.543 69.312 147.644 69.312ZM155.996 72V69.48L162.828 62.508C164.489 60.8467 165.32 59.4093 165.32 58.196C165.32 57.244 165.03 56.5067 164.452 55.984C163.892 55.4427 163.173 55.172 162.296 55.172C160.653 55.172 159.44 55.984 158.656 57.608L155.94 56.012C156.556 54.7053 157.424 53.716 158.544 53.044C159.664 52.372 160.905 52.036 162.268 52.036C163.985 52.036 165.46 52.5773 166.692 53.66C167.924 54.7427 168.54 56.2173 168.54 58.084C168.54 60.0813 167.429 62.2093 165.208 64.468L160.784 68.892H168.904V72H155.996Z" fill="black"/>
<path d="M144.214 103.182C143.299 103.182 142.515 102.967 141.862 102.538C141.218 102.109 140.765 101.521 140.504 100.774L141.624 100.13C142.007 101.315 142.879 101.908 144.242 101.908C144.914 101.908 145.427 101.773 145.782 101.502C146.137 101.222 146.314 100.853 146.314 100.396C146.314 99.9293 146.137 99.5793 145.782 99.346C145.427 99.1127 144.835 98.8653 144.004 98.604C143.593 98.4733 143.281 98.3707 143.066 98.296C142.851 98.212 142.581 98.0907 142.254 97.932C141.937 97.764 141.699 97.596 141.54 97.428C141.381 97.2507 141.237 97.022 141.106 96.742C140.985 96.462 140.924 96.1447 140.924 95.79C140.924 94.9407 141.223 94.2687 141.82 93.774C142.417 93.27 143.145 93.018 144.004 93.018C144.779 93.018 145.451 93.214 146.02 93.606C146.599 93.998 147.033 94.516 147.322 95.16L146.23 95.79C145.81 94.782 145.068 94.278 144.004 94.278C143.472 94.278 143.043 94.4087 142.716 94.67C142.389 94.9313 142.226 95.286 142.226 95.734C142.226 96.1633 142.38 96.49 142.688 96.714C142.996 96.938 143.528 97.1713 144.284 97.414C144.555 97.498 144.746 97.5587 144.858 97.596C144.97 97.6333 145.143 97.6987 145.376 97.792C145.619 97.8853 145.796 97.96 145.908 98.016C146.02 98.072 146.169 98.1513 146.356 98.254C146.552 98.3567 146.697 98.4547 146.79 98.548C146.883 98.6413 146.991 98.758 147.112 98.898C147.243 99.0287 147.336 99.164 147.392 99.304C147.448 99.444 147.495 99.6073 147.532 99.794C147.579 99.9713 147.602 100.163 147.602 100.368C147.602 101.227 147.289 101.913 146.664 102.426C146.039 102.93 145.222 103.182 144.214 103.182ZM152.761 97.176H150.899V100.97C150.899 101.315 150.964 101.563 151.095 101.712C151.235 101.852 151.445 101.927 151.725 101.936C152.005 101.936 152.35 101.927 152.761 101.908V103C151.697 103.14 150.917 103.056 150.423 102.748C149.928 102.431 149.681 101.838 149.681 100.97V97.176H148.295V96H149.681V94.404L150.899 94.04V96H152.761V97.176ZM159.214 96H160.432V103H159.214V101.992C158.719 102.785 157.963 103.182 156.946 103.182C156.124 103.182 155.466 102.925 154.972 102.412C154.477 101.889 154.23 101.185 154.23 100.298V96H155.448V100.228C155.448 100.797 155.602 101.241 155.91 101.558C156.218 101.866 156.642 102.02 157.184 102.02C157.79 102.02 158.28 101.833 158.654 101.46C159.027 101.077 159.214 100.494 159.214 99.71V96ZM168.222 93.2H169.44V103H168.222V101.796C167.615 102.72 166.733 103.182 165.576 103.182C164.596 103.182 163.761 102.827 163.07 102.118C162.379 101.399 162.034 100.527 162.034 99.5C162.034 98.4733 162.379 97.6053 163.07 96.896C163.761 96.1773 164.596 95.818 165.576 95.818C166.733 95.818 167.615 96.28 168.222 97.204V93.2ZM165.73 102.006C166.439 102.006 167.032 101.768 167.508 101.292C167.984 100.807 168.222 100.209 168.222 99.5C168.222 98.7907 167.984 98.198 167.508 97.722C167.032 97.2367 166.439 96.994 165.73 96.994C165.03 96.994 164.442 97.2367 163.966 97.722C163.49 98.198 163.252 98.7907 163.252 99.5C163.252 100.209 163.49 100.807 163.966 101.292C164.442 101.768 165.03 102.006 165.73 102.006ZM172.279 100.06C172.401 100.685 172.685 101.171 173.133 101.516C173.591 101.861 174.151 102.034 174.813 102.034C175.737 102.034 176.409 101.693 176.829 101.012L177.865 101.6C177.184 102.655 176.157 103.182 174.785 103.182C173.675 103.182 172.769 102.837 172.069 102.146C171.379 101.446 171.033 100.564 171.033 99.5C171.033 98.4453 171.374 97.568 172.055 96.868C172.737 96.168 173.619 95.818 174.701 95.818C175.728 95.818 176.563 96.182 177.207 96.91C177.861 97.6287 178.187 98.4967 178.187 99.514C178.187 99.6913 178.173 99.8733 178.145 100.06H172.279ZM174.701 96.966C174.048 96.966 173.507 97.1527 173.077 97.526C172.648 97.89 172.382 98.38 172.279 98.996H176.955C176.853 98.3333 176.591 97.8293 176.171 97.484C175.751 97.1387 175.261 96.966 174.701 96.966ZM183.214 95.818C184.035 95.818 184.693 96.0793 185.188 96.602C185.682 97.1153 185.93 97.8153 185.93 98.702V103H184.712V98.772C184.712 98.2027 184.558 97.764 184.25 97.456C183.942 97.1387 183.517 96.98 182.976 96.98C182.369 96.98 181.879 97.1713 181.506 97.554C181.132 97.9273 180.946 98.506 180.946 99.29V103H179.728V96H180.946V97.008C181.44 96.2147 182.196 95.818 183.214 95.818ZM191.578 97.176H189.716V100.97C189.716 101.315 189.781 101.563 189.912 101.712C190.052 101.852 190.262 101.927 190.542 101.936C190.822 101.936 191.167 101.927 191.578 101.908V103C190.514 103.14 189.735 103.056 189.24 102.748C188.745 102.431 188.498 101.838 188.498 100.97V97.176H187.112V96H188.498V94.404L189.716 94.04V96H191.578V97.176ZM193.868 97.89C193.868 98.1607 194.003 98.38 194.274 98.548C194.545 98.7067 194.871 98.8373 195.254 98.94C195.637 99.0333 196.019 99.1453 196.402 99.276C196.785 99.3973 197.111 99.612 197.382 99.92C197.653 100.219 197.788 100.606 197.788 101.082C197.788 101.717 197.541 102.225 197.046 102.608C196.561 102.991 195.935 103.182 195.17 103.182C194.489 103.182 193.905 103.033 193.42 102.734C192.935 102.435 192.589 102.039 192.384 101.544L193.434 100.942C193.546 101.278 193.756 101.544 194.064 101.74C194.372 101.936 194.741 102.034 195.17 102.034C195.571 102.034 195.903 101.959 196.164 101.81C196.425 101.651 196.556 101.409 196.556 101.082C196.556 100.811 196.421 100.597 196.15 100.438C195.879 100.27 195.553 100.139 195.17 100.046C194.787 99.9433 194.405 99.8267 194.022 99.696C193.639 99.5653 193.313 99.3507 193.042 99.052C192.771 98.7533 192.636 98.3707 192.636 97.904C192.636 97.2973 192.869 96.798 193.336 96.406C193.812 96.014 194.405 95.818 195.114 95.818C195.683 95.818 196.187 95.9487 196.626 96.21C197.074 96.462 197.41 96.8167 197.634 97.274L196.612 97.848C196.36 97.2507 195.861 96.952 195.114 96.952C194.769 96.952 194.475 97.036 194.232 97.204C193.989 97.3627 193.868 97.5913 193.868 97.89Z" fill="#A6ACBE"/>
<circle cx="75" cy="75" r="35" fill="#713BDB" fill-opacity="0.05"/>
<path d="M66 84C66 80.625 70.5 80.625 72.75 78.375C73.875 77.25 70.5 77.25 70.5 71.625C70.5 67.8754 71.9996 66 75 66C78.0004 66 79.5 67.8754 79.5 71.625C79.5 77.25 76.125 77.25 77.25 78.375C79.5 80.625 84 80.625 84 84" stroke="#00B2FF" stroke-width="2" stroke-linecap="square"/>
</svg>
