<svg width="395" height="572" viewBox="0 0 395 572" fill="none" xmlns="http://www.w3.org/2000/svg">
<rect width="395" height="572" rx="10" fill="#EDEDF6"/>
<rect width="395" height="569" rx="10" fill="white"/>
<path d="M34.242 42.182C33.2993 42.182 32.4967 41.9673 31.834 41.538C31.1807 41.1087 30.7233 40.5207 30.462 39.774L31.848 38.962C32.24 40.0633 33.052 40.614 34.284 40.614C34.8907 40.614 35.3433 40.4973 35.642 40.264C35.95 40.0213 36.104 39.7087 36.104 39.326C36.104 38.9247 35.9407 38.6213 35.614 38.416C35.2873 38.2013 34.7087 37.968 33.878 37.716C33.4113 37.576 33.0333 37.4453 32.744 37.324C32.4547 37.2027 32.1467 37.0347 31.82 36.82C31.5027 36.596 31.2647 36.3207 31.106 35.994C30.9473 35.6673 30.868 35.2847 30.868 34.846C30.868 33.978 31.176 33.292 31.792 32.788C32.408 32.2747 33.15 32.018 34.018 32.018C34.802 32.018 35.488 32.2093 36.076 32.592C36.664 32.9747 37.1167 33.502 37.434 34.174L36.076 34.958C35.6653 34.0433 34.9793 33.586 34.018 33.586C33.5513 33.586 33.178 33.698 32.898 33.922C32.618 34.1367 32.478 34.4307 32.478 34.804C32.478 35.168 32.618 35.4573 32.898 35.672C33.1873 35.8773 33.7053 36.0967 34.452 36.33C34.8253 36.4513 35.096 36.5447 35.264 36.61C35.4413 36.666 35.684 36.7593 35.992 36.89C36.3093 37.0207 36.5473 37.1513 36.706 37.282C36.8647 37.4127 37.0327 37.576 37.21 37.772C37.3967 37.968 37.5273 38.192 37.602 38.444C37.6767 38.696 37.714 38.9807 37.714 39.298C37.714 40.1847 37.392 40.8893 36.748 41.412C36.1133 41.9253 35.278 42.182 34.242 42.182ZM42.844 36.456H41.108V39.816C41.108 40.1053 41.1733 40.3153 41.304 40.446C41.4347 40.5673 41.626 40.6373 41.878 40.656C42.1393 40.6653 42.4613 40.6607 42.844 40.642V42C41.6867 42.14 40.856 42.042 40.352 41.706C39.848 41.3607 39.596 40.7307 39.596 39.816V36.456H38.308V35H39.596V33.488L41.108 33.04V35H42.844V36.456ZM49.1417 35H50.6537V42H49.1417V41.104C48.6844 41.8227 47.9611 42.182 46.9717 42.182C46.1691 42.182 45.5204 41.9253 45.0257 41.412C44.5311 40.8987 44.2837 40.194 44.2837 39.298V35H45.7957V39.144C45.7957 39.6667 45.9357 40.068 46.2157 40.348C46.4957 40.628 46.8784 40.768 47.3637 40.768C47.8957 40.768 48.3251 40.6047 48.6517 40.278C48.9784 39.942 49.1417 39.4333 49.1417 38.752V35ZM58.1058 32.2H59.6178V42H58.1058V40.992C57.5364 41.7853 56.7198 42.182 55.6558 42.182C54.6944 42.182 53.8731 41.8273 53.1918 41.118C52.5104 40.3993 52.1698 39.5267 52.1698 38.5C52.1698 37.464 52.5104 36.5913 53.1918 35.882C53.8731 35.1727 54.6944 34.818 55.6558 34.818C56.7198 34.818 57.5364 35.21 58.1058 35.994V32.2ZM54.3118 40.11C54.7318 40.53 55.2591 40.74 55.8938 40.74C56.5284 40.74 57.0558 40.53 57.4758 40.11C57.8958 39.6807 58.1058 39.144 58.1058 38.5C58.1058 37.856 57.8958 37.324 57.4758 36.904C57.0558 36.4747 56.5284 36.26 55.8938 36.26C55.2591 36.26 54.7318 36.4747 54.3118 36.904C53.8918 37.324 53.6818 37.856 53.6818 38.5C53.6818 39.144 53.8918 39.6807 54.3118 40.11ZM62.7101 39.144C62.8221 39.676 63.0788 40.0867 63.4801 40.376C63.8815 40.656 64.3715 40.796 64.9501 40.796C65.7528 40.796 66.3548 40.5067 66.7561 39.928L68.0021 40.656C67.3115 41.6733 66.2895 42.182 64.9361 42.182C63.7975 42.182 62.8781 41.8367 62.1781 41.146C61.4781 40.446 61.1281 39.564 61.1281 38.5C61.1281 37.4547 61.4735 36.582 62.1641 35.882C62.8548 35.1727 63.7415 34.818 64.8241 34.818C65.8508 34.818 66.6908 35.1773 67.3441 35.896C68.0068 36.6147 68.3381 37.4873 68.3381 38.514C68.3381 38.6727 68.3195 38.8827 68.2821 39.144H62.7101ZM62.6961 37.912H66.8121C66.7095 37.3427 66.4715 36.9133 66.0981 36.624C65.7341 36.3347 65.3048 36.19 64.8101 36.19C64.2501 36.19 63.7835 36.344 63.4101 36.652C63.0368 36.96 62.7988 37.38 62.6961 37.912ZM73.4906 34.818C74.2932 34.818 74.9419 35.0747 75.4366 35.588C75.9312 36.1013 76.1786 36.806 76.1786 37.702V42H74.6666V37.856C74.6666 37.3333 74.5266 36.932 74.2466 36.652C73.9666 36.372 73.5839 36.232 73.0986 36.232C72.5666 36.232 72.1372 36.4 71.8106 36.736C71.4839 37.0627 71.3206 37.5667 71.3206 38.248V42H69.8086V35H71.3206V35.896C71.7779 35.1773 72.5012 34.818 73.4906 34.818ZM81.8526 36.456H80.1166V39.816C80.1166 40.1053 80.1819 40.3153 80.3126 40.446C80.4433 40.5673 80.6346 40.6373 80.8866 40.656C81.1479 40.6653 81.4699 40.6607 81.8526 40.642V42C80.6953 42.14 79.8646 42.042 79.3606 41.706C78.8566 41.3607 78.6046 40.7307 78.6046 39.816V36.456H77.3166V35H78.6046V33.488L80.1166 33.04V35H81.8526V36.456ZM84.4622 36.932C84.4622 37.1653 84.5882 37.352 84.8402 37.492C85.1015 37.6227 85.4142 37.7393 85.7782 37.842C86.1515 37.9353 86.5249 38.0473 86.8982 38.178C87.2715 38.3087 87.5842 38.5327 87.8362 38.85C88.0975 39.158 88.2282 39.55 88.2282 40.026C88.2282 40.698 87.9669 41.2253 87.4442 41.608C86.9309 41.9907 86.2822 42.182 85.4982 42.182C84.8075 42.182 84.2149 42.0373 83.7202 41.748C83.2255 41.4587 82.8662 41.0573 82.6422 40.544L83.9442 39.788C84.1869 40.46 84.7049 40.796 85.4982 40.796C86.2915 40.796 86.6882 40.5347 86.6882 40.012C86.6882 39.788 86.5575 39.606 86.2962 39.466C86.0442 39.326 85.7315 39.2093 85.3582 39.116C84.9942 39.0133 84.6255 38.8967 84.2522 38.766C83.8789 38.6353 83.5615 38.4207 83.3002 38.122C83.0482 37.814 82.9222 37.4267 82.9222 36.96C82.9222 36.316 83.1649 35.798 83.6502 35.406C84.1449 35.014 84.7562 34.818 85.4842 34.818C86.0629 34.818 86.5762 34.9487 87.0242 35.21C87.4815 35.462 87.8315 35.8167 88.0742 36.274L86.8002 36.988C86.5575 36.456 86.1189 36.19 85.4842 36.19C85.1949 36.19 84.9522 36.2553 84.7562 36.386C84.5602 36.5073 84.4622 36.6893 84.4622 36.932ZM97.2993 34.818C98.2606 34.818 99.082 35.1727 99.7633 35.882C100.445 36.5913 100.785 37.464 100.785 38.5C100.785 39.5267 100.445 40.3993 99.7633 41.118C99.082 41.8273 98.2606 42.182 97.2993 42.182C96.2353 42.182 95.4186 41.7853 94.8493 40.992V42H93.3373V32.2H94.8493V35.994C95.4186 35.21 96.2353 34.818 97.2993 34.818ZM95.4793 40.11C95.8993 40.53 96.4266 40.74 97.0613 40.74C97.696 40.74 98.2233 40.53 98.6433 40.11C99.0633 39.6807 99.2733 39.144 99.2733 38.5C99.2733 37.856 99.0633 37.324 98.6433 36.904C98.2233 36.4747 97.696 36.26 97.0613 36.26C96.4266 36.26 95.8993 36.4747 95.4793 36.904C95.0593 37.324 94.8493 37.856 94.8493 38.5C94.8493 39.144 95.0593 39.6807 95.4793 40.11ZM106.74 35H108.35L105.662 42.224C104.99 44.0347 103.852 44.8933 102.246 44.8V43.386C102.722 43.414 103.105 43.3113 103.394 43.078C103.684 42.854 103.922 42.4993 104.108 42.014L104.178 41.874L101.21 35H102.862L104.948 40.082L106.74 35ZM118.62 35H120.132V42H118.62V40.992C118.05 41.7853 117.234 42.182 116.17 42.182C115.208 42.182 114.387 41.8273 113.706 41.118C113.024 40.3993 112.684 39.5267 112.684 38.5C112.684 37.464 113.024 36.5913 113.706 35.882C114.387 35.1727 115.208 34.818 116.17 34.818C117.234 34.818 118.05 35.21 118.62 35.994V35ZM114.826 40.11C115.246 40.53 115.773 40.74 116.408 40.74C117.042 40.74 117.57 40.53 117.99 40.11C118.41 39.6807 118.62 39.144 118.62 38.5C118.62 37.856 118.41 37.324 117.99 36.904C117.57 36.4747 117.042 36.26 116.408 36.26C115.773 36.26 115.246 36.4747 114.826 36.904C114.406 37.324 114.196 37.856 114.196 38.5C114.196 39.144 114.406 39.6807 114.826 40.11ZM126.78 35H128.432L125.702 42H123.952L121.222 35H122.874L124.834 40.32L126.78 35ZM130.446 39.144C130.558 39.676 130.815 40.0867 131.216 40.376C131.617 40.656 132.107 40.796 132.686 40.796C133.489 40.796 134.091 40.5067 134.492 39.928L135.738 40.656C135.047 41.6733 134.025 42.182 132.672 42.182C131.533 42.182 130.614 41.8367 129.914 41.146C129.214 40.446 128.864 39.564 128.864 38.5C128.864 37.4547 129.209 36.582 129.9 35.882C130.591 35.1727 131.477 34.818 132.56 34.818C133.587 34.818 134.427 35.1773 135.08 35.896C135.743 36.6147 136.074 37.4873 136.074 38.514C136.074 38.6727 136.055 38.8827 136.018 39.144H130.446ZM130.432 37.912H134.548C134.445 37.3427 134.207 36.9133 133.834 36.624C133.47 36.3347 133.041 36.19 132.546 36.19C131.986 36.19 131.519 36.344 131.146 36.652C130.773 36.96 130.535 37.38 130.432 37.912ZM139.056 36.176C139.439 35.308 140.158 34.874 141.212 34.874V36.512C140.634 36.4747 140.13 36.6147 139.7 36.932C139.271 37.24 139.056 37.7533 139.056 38.472V42H137.544V35H139.056V36.176ZM147.686 35H149.198V42H147.686V40.992C147.116 41.7853 146.3 42.182 145.236 42.182C144.274 42.182 143.453 41.8273 142.772 41.118C142.09 40.3993 141.75 39.5267 141.75 38.5C141.75 37.464 142.09 36.5913 142.772 35.882C143.453 35.1727 144.274 34.818 145.236 34.818C146.3 34.818 147.116 35.21 147.686 35.994V35ZM143.892 40.11C144.312 40.53 144.839 40.74 145.474 40.74C146.108 40.74 146.636 40.53 147.056 40.11C147.476 39.6807 147.686 39.144 147.686 38.5C147.686 37.856 147.476 37.324 147.056 36.904C146.636 36.4747 146.108 36.26 145.474 36.26C144.839 36.26 144.312 36.4747 143.892 36.904C143.472 37.324 143.262 37.856 143.262 38.5C143.262 39.144 143.472 39.6807 143.892 40.11ZM156.672 35H158.156V41.678C158.156 42.742 157.806 43.5587 157.106 44.128C156.406 44.6973 155.557 44.982 154.558 44.982C152.943 44.982 151.837 44.4173 151.24 43.288L152.542 42.532C152.906 43.2507 153.587 43.61 154.586 43.61C155.239 43.61 155.748 43.4373 156.112 43.092C156.485 42.756 156.672 42.2847 156.672 41.678V40.824C156.103 41.636 155.291 42.042 154.236 42.042C153.247 42.042 152.411 41.692 151.73 40.992C151.049 40.2827 150.708 39.4287 150.708 38.43C150.708 37.4313 151.049 36.582 151.73 35.882C152.411 35.1727 153.247 34.818 154.236 34.818C155.291 34.818 156.103 35.224 156.672 36.036V35ZM152.85 39.998C153.279 40.418 153.811 40.628 154.446 40.628C155.081 40.628 155.608 40.418 156.028 39.998C156.457 39.578 156.672 39.0553 156.672 38.43C156.672 37.8047 156.457 37.282 156.028 36.862C155.608 36.442 155.081 36.232 154.446 36.232C153.811 36.232 153.279 36.442 152.85 36.862C152.43 37.282 152.22 37.8047 152.22 38.43C152.22 39.0553 152.43 39.578 152.85 39.998ZM161.248 39.144C161.36 39.676 161.617 40.0867 162.018 40.376C162.42 40.656 162.91 40.796 163.488 40.796C164.291 40.796 164.893 40.5067 165.294 39.928L166.54 40.656C165.85 41.6733 164.828 42.182 163.474 42.182C162.336 42.182 161.416 41.8367 160.716 41.146C160.016 40.446 159.666 39.564 159.666 38.5C159.666 37.4547 160.012 36.582 160.702 35.882C161.393 35.1727 162.28 34.818 163.362 34.818C164.389 34.818 165.229 35.1773 165.882 35.896C166.545 36.6147 166.876 37.4873 166.876 38.514C166.876 38.6727 166.858 38.8827 166.82 39.144H161.248ZM161.234 37.912H165.35C165.248 37.3427 165.01 36.9133 164.636 36.624C164.272 36.3347 163.843 36.19 163.348 36.19C162.788 36.19 162.322 36.344 161.948 36.652C161.575 36.96 161.337 37.38 161.234 37.912ZM179.631 34.818C180.424 34.818 181.063 35.0747 181.549 35.588C182.034 36.1013 182.277 36.792 182.277 37.66V42H180.765V37.758C180.765 37.2727 180.643 36.8993 180.401 36.638C180.158 36.3673 179.827 36.232 179.407 36.232C178.94 36.232 178.567 36.386 178.287 36.694C178.016 37.002 177.881 37.464 177.881 38.08V42H176.369V37.758C176.369 37.2727 176.252 36.8993 176.019 36.638C175.795 36.3673 175.473 36.232 175.053 36.232C174.595 36.232 174.222 36.3907 173.933 36.708C173.643 37.016 173.499 37.4733 173.499 38.08V42H171.987V35H173.499V35.84C173.947 35.1587 174.614 34.818 175.501 34.818C176.397 34.818 177.059 35.1867 177.489 35.924C177.955 35.1867 178.669 34.818 179.631 34.818ZM189.579 35H191.091V42H189.579V40.992C189.01 41.7853 188.193 42.182 187.129 42.182C186.168 42.182 185.346 41.8273 184.665 41.118C183.984 40.3993 183.643 39.5267 183.643 38.5C183.643 37.464 183.984 36.5913 184.665 35.882C185.346 35.1727 186.168 34.818 187.129 34.818C188.193 34.818 189.01 35.21 189.579 35.994V35ZM185.785 40.11C186.205 40.53 186.732 40.74 187.367 40.74C188.002 40.74 188.529 40.53 188.949 40.11C189.369 39.6807 189.579 39.144 189.579 38.5C189.579 37.856 189.369 37.324 188.949 36.904C188.529 36.4747 188.002 36.26 187.367 36.26C186.732 36.26 186.205 36.4747 185.785 36.904C185.365 37.324 185.155 37.856 185.155 38.5C185.155 39.144 185.365 39.6807 185.785 40.11ZM194.505 36.176C194.888 35.308 195.607 34.874 196.661 34.874V36.512C196.083 36.4747 195.579 36.6147 195.149 36.932C194.72 37.24 194.505 37.7533 194.505 38.472V42H192.993V35H194.505V36.176ZM204.106 42H202.3L199.43 38.766V42H197.918V32.2H199.43V38.094L202.146 35H203.994L200.914 38.43L204.106 42Z" fill="black"/>
<path d="M273.872 32.2C275.207 32.2 276.313 32.676 277.19 33.628C278.077 34.5707 278.52 35.728 278.52 37.1C278.52 38.472 278.077 39.634 277.19 40.586C276.313 41.5287 275.207 42 273.872 42H270.05V32.2H273.872ZM273.872 40.768C274.871 40.768 275.687 40.418 276.322 39.718C276.957 39.018 277.274 38.1453 277.274 37.1C277.274 36.0547 276.957 35.182 276.322 34.482C275.687 33.782 274.871 33.432 273.872 33.432H271.352V40.768H273.872ZM280.967 39.06C281.088 39.6853 281.373 40.1707 281.821 40.516C282.278 40.8613 282.838 41.034 283.501 41.034C284.425 41.034 285.097 40.6933 285.517 40.012L286.553 40.6C285.871 41.6547 284.845 42.182 283.473 42.182C282.362 42.182 281.457 41.8367 280.757 41.146C280.066 40.446 279.721 39.564 279.721 38.5C279.721 37.4453 280.061 36.568 280.743 35.868C281.424 35.168 282.306 34.818 283.389 34.818C284.415 34.818 285.251 35.182 285.895 35.91C286.548 36.6287 286.875 37.4967 286.875 38.514C286.875 38.6913 286.861 38.8733 286.833 39.06H280.967ZM283.389 35.966C282.735 35.966 282.194 36.1527 281.765 36.526C281.335 36.89 281.069 37.38 280.967 37.996H285.643C285.54 37.3333 285.279 36.8293 284.859 36.484C284.439 36.1387 283.949 35.966 283.389 35.966ZM289.192 36.89C289.192 37.1607 289.327 37.38 289.598 37.548C289.868 37.7067 290.195 37.8373 290.578 37.94C290.96 38.0333 291.343 38.1453 291.726 38.276C292.108 38.3973 292.435 38.612 292.706 38.92C292.976 39.2187 293.112 39.606 293.112 40.082C293.112 40.7167 292.864 41.2253 292.37 41.608C291.884 41.9907 291.259 42.182 290.494 42.182C289.812 42.182 289.229 42.0327 288.744 41.734C288.258 41.4353 287.913 41.0387 287.708 40.544L288.758 39.942C288.87 40.278 289.08 40.544 289.388 40.74C289.696 40.936 290.064 41.034 290.494 41.034C290.895 41.034 291.226 40.9593 291.488 40.81C291.749 40.6513 291.88 40.4087 291.88 40.082C291.88 39.8113 291.744 39.5967 291.474 39.438C291.203 39.27 290.876 39.1393 290.494 39.046C290.111 38.9433 289.728 38.8267 289.346 38.696C288.963 38.5653 288.636 38.3507 288.366 38.052C288.095 37.7533 287.96 37.3707 287.96 36.904C287.96 36.2973 288.193 35.798 288.66 35.406C289.136 35.014 289.728 34.818 290.438 34.818C291.007 34.818 291.511 34.9487 291.95 35.21C292.398 35.462 292.734 35.8167 292.958 36.274L291.936 36.848C291.684 36.2507 291.184 35.952 290.438 35.952C290.092 35.952 289.798 36.036 289.556 36.204C289.313 36.3627 289.192 36.5913 289.192 36.89ZM297.792 42.182C296.738 42.182 295.86 41.832 295.16 41.132C294.46 40.4227 294.11 39.5453 294.11 38.5C294.11 37.4547 294.46 36.582 295.16 35.882C295.86 35.1727 296.738 34.818 297.792 34.818C298.483 34.818 299.104 34.986 299.654 35.322C300.205 35.6487 300.616 36.092 300.886 36.652L299.864 37.24C299.687 36.8667 299.412 36.568 299.038 36.344C298.674 36.12 298.259 36.008 297.792 36.008C297.092 36.008 296.504 36.246 296.028 36.722C295.562 37.198 295.328 37.7907 295.328 38.5C295.328 39.2 295.562 39.788 296.028 40.264C296.504 40.74 297.092 40.978 297.792 40.978C298.259 40.978 298.679 40.8707 299.052 40.656C299.426 40.432 299.71 40.1333 299.906 39.76L300.942 40.362C300.644 40.9127 300.214 41.356 299.654 41.692C299.094 42.0187 298.474 42.182 297.792 42.182ZM303.043 39.06C303.164 39.6853 303.449 40.1707 303.897 40.516C304.354 40.8613 304.914 41.034 305.577 41.034C306.501 41.034 307.173 40.6933 307.593 40.012L308.629 40.6C307.948 41.6547 306.921 42.182 305.549 42.182C304.438 42.182 303.533 41.8367 302.833 41.146C302.142 40.446 301.797 39.564 301.797 38.5C301.797 37.4453 302.138 36.568 302.819 35.868C303.5 35.168 304.382 34.818 305.465 34.818C306.492 34.818 307.327 35.182 307.971 35.91C308.624 36.6287 308.951 37.4967 308.951 38.514C308.951 38.6913 308.937 38.8733 308.909 39.06H303.043ZM305.465 35.966C304.812 35.966 304.27 36.1527 303.841 36.526C303.412 36.89 303.146 37.38 303.043 37.996H307.719C307.616 37.3333 307.355 36.8293 306.935 36.484C306.515 36.1387 306.025 35.966 305.465 35.966ZM313.977 34.818C314.799 34.818 315.457 35.0793 315.951 35.602C316.446 36.1153 316.693 36.8153 316.693 37.702V42H315.475V37.772C315.475 37.2027 315.321 36.764 315.013 36.456C314.705 36.1387 314.281 35.98 313.739 35.98C313.133 35.98 312.643 36.1713 312.269 36.554C311.896 36.9273 311.709 37.506 311.709 38.29V42H310.491V35H311.709V36.008C312.204 35.2147 312.96 34.818 313.977 34.818ZM324.33 32.2H325.548V42H324.33V40.796C323.723 41.72 322.841 42.182 321.684 42.182C320.704 42.182 319.868 41.8273 319.178 41.118C318.487 40.3993 318.142 39.5267 318.142 38.5C318.142 37.4733 318.487 36.6053 319.178 35.896C319.868 35.1773 320.704 34.818 321.684 34.818C322.841 34.818 323.723 35.28 324.33 36.204V32.2ZM321.838 41.006C322.547 41.006 323.14 40.768 323.616 40.292C324.092 39.8067 324.33 39.2093 324.33 38.5C324.33 37.7907 324.092 37.198 323.616 36.722C323.14 36.2367 322.547 35.994 321.838 35.994C321.138 35.994 320.55 36.2367 320.074 36.722C319.598 37.198 319.36 37.7907 319.36 38.5C319.36 39.2093 319.598 39.8067 320.074 40.292C320.55 40.768 321.138 41.006 321.838 41.006ZM328.149 33.726C327.916 33.726 327.72 33.6467 327.561 33.488C327.402 33.3293 327.323 33.138 327.323 32.914C327.323 32.69 327.402 32.4987 327.561 32.34C327.72 32.172 327.916 32.088 328.149 32.088C328.373 32.088 328.564 32.172 328.723 32.34C328.882 32.4987 328.961 32.69 328.961 32.914C328.961 33.138 328.882 33.3293 328.723 33.488C328.564 33.6467 328.373 33.726 328.149 33.726ZM327.533 42V35H328.751V42H327.533ZM334.235 34.818C335.056 34.818 335.714 35.0793 336.209 35.602C336.704 36.1153 336.951 36.8153 336.951 37.702V42H335.733V37.772C335.733 37.2027 335.579 36.764 335.271 36.456C334.963 36.1387 334.538 35.98 333.997 35.98C333.39 35.98 332.9 36.1713 332.527 36.554C332.154 36.9273 331.967 37.506 331.967 38.29V42H330.749V35H331.967V36.008C332.462 35.2147 333.218 34.818 334.235 34.818ZM344.601 35H345.805V41.706C345.805 42.742 345.455 43.5447 344.755 44.114C344.055 44.6927 343.215 44.982 342.235 44.982C341.451 44.982 340.775 44.8327 340.205 44.534C339.636 44.2447 339.207 43.8247 338.917 43.274L339.981 42.672C340.364 43.456 341.125 43.848 342.263 43.848C342.991 43.848 343.561 43.6567 343.971 43.274C344.391 42.8913 344.601 42.3687 344.601 41.706V40.712C343.985 41.6453 343.108 42.112 341.969 42.112C340.971 42.112 340.126 41.7573 339.435 41.048C338.745 40.3387 338.399 39.4753 338.399 38.458C338.399 37.4407 338.745 36.582 339.435 35.882C340.126 35.1727 340.971 34.818 341.969 34.818C343.117 34.818 343.995 35.28 344.601 36.204V35ZM340.331 40.236C340.807 40.712 341.4 40.95 342.109 40.95C342.819 40.95 343.411 40.712 343.887 40.236C344.363 39.76 344.601 39.1673 344.601 38.458C344.601 37.758 344.363 37.17 343.887 36.694C343.411 36.218 342.819 35.98 342.109 35.98C341.4 35.98 340.807 36.218 340.331 36.694C339.855 37.17 339.617 37.758 339.617 38.458C339.617 39.1673 339.855 39.76 340.331 40.236Z" fill="#A6ACBE"/>
<path d="M358 37L362 41L366 37" stroke="#B0B9C7" stroke-width="1.5" stroke-linecap="round" stroke-linejoin="round"/>
<line x1="4.37114e-08" y1="73.5" x2="395" y2="73.5" stroke="#EEF0F7"/>
<circle cx="50" cy="124" r="20" fill="#EBEBEB"/>
<path d="M92.504 129L91.706 126.802H87.296L86.498 129H85.112L88.766 119.2H90.236L93.89 129H92.504ZM87.744 125.584H91.258L89.494 120.754L87.744 125.584ZM98.5461 121.818C99.3674 121.818 100.025 122.079 100.52 122.602C101.015 123.115 101.262 123.815 101.262 124.702V129H100.044V124.772C100.044 124.203 99.8901 123.764 99.5821 123.456C99.2741 123.139 98.8494 122.98 98.3081 122.98C97.7014 122.98 97.2114 123.171 96.8381 123.554C96.4648 123.927 96.2781 124.506 96.2781 125.29V129H95.0601V122H96.2781V123.008C96.7728 122.215 97.5288 121.818 98.5461 121.818ZM106.588 121.818C107.41 121.818 108.068 122.079 108.562 122.602C109.057 123.115 109.304 123.815 109.304 124.702V129H108.086V124.772C108.086 124.203 107.932 123.764 107.624 123.456C107.316 123.139 106.892 122.98 106.35 122.98C105.744 122.98 105.254 123.171 104.88 123.554C104.507 123.927 104.32 124.506 104.32 125.29V129H103.102V122H104.32V123.008C104.815 122.215 105.571 121.818 106.588 121.818ZM111.999 126.06C112.12 126.685 112.405 127.171 112.853 127.516C113.31 127.861 113.87 128.034 114.533 128.034C115.457 128.034 116.129 127.693 116.549 127.012L117.585 127.6C116.903 128.655 115.877 129.182 114.505 129.182C113.394 129.182 112.489 128.837 111.789 128.146C111.098 127.446 110.753 126.564 110.753 125.5C110.753 124.445 111.093 123.568 111.775 122.868C112.456 122.168 113.338 121.818 114.421 121.818C115.447 121.818 116.283 122.182 116.927 122.91C117.58 123.629 117.907 124.497 117.907 125.514C117.907 125.691 117.893 125.873 117.865 126.06H111.999ZM114.421 122.966C113.767 122.966 113.226 123.153 112.797 123.526C112.367 123.89 112.101 124.38 111.999 124.996H116.675C116.572 124.333 116.311 123.829 115.891 123.484C115.471 123.139 114.981 122.966 114.421 122.966ZM123.05 123.176H121.188V126.97C121.188 127.315 121.253 127.563 121.384 127.712C121.524 127.852 121.734 127.927 122.014 127.936C122.294 127.936 122.639 127.927 123.05 127.908V129C121.986 129.14 121.206 129.056 120.712 128.748C120.217 128.431 119.97 127.838 119.97 126.97V123.176H118.584V122H119.97V120.404L121.188 120.04V122H123.05V123.176ZM128.071 123.176H126.209V126.97C126.209 127.315 126.274 127.563 126.405 127.712C126.545 127.852 126.755 127.927 127.035 127.936C127.315 127.936 127.66 127.927 128.071 127.908V129C127.007 129.14 126.227 129.056 125.733 128.748C125.238 128.431 124.991 127.838 124.991 126.97V123.176H123.605V122H124.991V120.404L126.209 120.04V122H128.071V123.176ZM130.151 126.06C130.273 126.685 130.557 127.171 131.005 127.516C131.463 127.861 132.023 128.034 132.685 128.034C133.609 128.034 134.281 127.693 134.701 127.012L135.737 127.6C135.056 128.655 134.029 129.182 132.657 129.182C131.547 129.182 130.641 128.837 129.941 128.146C129.251 127.446 128.905 126.564 128.905 125.5C128.905 124.445 129.246 123.568 129.927 122.868C130.609 122.168 131.491 121.818 132.573 121.818C133.6 121.818 134.435 122.182 135.079 122.91C135.733 123.629 136.059 124.497 136.059 125.514C136.059 125.691 136.045 125.873 136.017 126.06H130.151ZM132.573 122.966C131.92 122.966 131.379 123.153 130.949 123.526C130.52 123.89 130.254 124.38 130.151 124.996H134.827C134.725 124.333 134.463 123.829 134.043 123.484C133.623 123.139 133.133 122.966 132.573 122.966ZM143.479 129L140.665 119.2H142.037L144.277 127.264L146.657 119.2H147.973L150.353 127.264L152.593 119.2H153.965L151.151 129H149.639L147.315 121.174L144.991 129H143.479ZM160.341 122H161.559V129H160.341V127.796C159.735 128.72 158.853 129.182 157.695 129.182C156.715 129.182 155.88 128.827 155.189 128.118C154.499 127.399 154.153 126.527 154.153 125.5C154.153 124.473 154.499 123.605 155.189 122.896C155.88 122.177 156.715 121.818 157.695 121.818C158.853 121.818 159.735 122.28 160.341 123.204V122ZM157.849 128.006C158.559 128.006 159.151 127.768 159.627 127.292C160.103 126.807 160.341 126.209 160.341 125.5C160.341 124.791 160.103 124.198 159.627 123.722C159.151 123.237 158.559 122.994 157.849 122.994C157.149 122.994 156.561 123.237 156.085 123.722C155.609 124.198 155.371 124.791 155.371 125.5C155.371 126.209 155.609 126.807 156.085 127.292C156.561 127.768 157.149 128.006 157.849 128.006ZM167.353 123.176H165.491V126.97C165.491 127.315 165.556 127.563 165.687 127.712C165.827 127.852 166.037 127.927 166.317 127.936C166.597 127.936 166.942 127.927 167.353 127.908V129C166.289 129.14 165.509 129.056 165.015 128.748C164.52 128.431 164.273 127.838 164.273 126.97V123.176H162.887V122H164.273V120.404L165.491 120.04V122H167.353V123.176ZM169.643 123.89C169.643 124.161 169.778 124.38 170.049 124.548C170.32 124.707 170.646 124.837 171.029 124.94C171.412 125.033 171.794 125.145 172.177 125.276C172.56 125.397 172.886 125.612 173.157 125.92C173.428 126.219 173.563 126.606 173.563 127.082C173.563 127.717 173.316 128.225 172.821 128.608C172.336 128.991 171.71 129.182 170.945 129.182C170.264 129.182 169.68 129.033 169.195 128.734C168.71 128.435 168.364 128.039 168.159 127.544L169.209 126.942C169.321 127.278 169.531 127.544 169.839 127.74C170.147 127.936 170.516 128.034 170.945 128.034C171.346 128.034 171.678 127.959 171.939 127.81C172.2 127.651 172.331 127.409 172.331 127.082C172.331 126.811 172.196 126.597 171.925 126.438C171.654 126.27 171.328 126.139 170.945 126.046C170.562 125.943 170.18 125.827 169.797 125.696C169.414 125.565 169.088 125.351 168.817 125.052C168.546 124.753 168.411 124.371 168.411 123.904C168.411 123.297 168.644 122.798 169.111 122.406C169.587 122.014 170.18 121.818 170.889 121.818C171.458 121.818 171.962 121.949 172.401 122.21C172.849 122.462 173.185 122.817 173.409 123.274L172.387 123.848C172.135 123.251 171.636 122.952 170.889 122.952C170.544 122.952 170.25 123.036 170.007 123.204C169.764 123.363 169.643 123.591 169.643 123.89ZM180.862 128.118C180.143 128.827 179.27 129.182 178.244 129.182C177.217 129.182 176.344 128.827 175.626 128.118C174.916 127.409 174.562 126.536 174.562 125.5C174.562 124.464 174.916 123.591 175.626 122.882C176.344 122.173 177.217 121.818 178.244 121.818C179.27 121.818 180.143 122.173 180.862 122.882C181.58 123.591 181.94 124.464 181.94 125.5C181.94 126.536 181.58 127.409 180.862 128.118ZM178.244 127.992C178.944 127.992 179.532 127.754 180.008 127.278C180.484 126.802 180.722 126.209 180.722 125.5C180.722 124.791 180.484 124.198 180.008 123.722C179.532 123.246 178.944 123.008 178.244 123.008C177.553 123.008 176.97 123.246 176.494 123.722C176.018 124.198 175.78 124.791 175.78 125.5C175.78 126.209 176.018 126.802 176.494 127.278C176.97 127.754 177.553 127.992 178.244 127.992ZM187.001 121.818C187.823 121.818 188.481 122.079 188.975 122.602C189.47 123.115 189.717 123.815 189.717 124.702V129H188.499V124.772C188.499 124.203 188.345 123.764 188.037 123.456C187.729 123.139 187.305 122.98 186.763 122.98C186.157 122.98 185.667 123.171 185.293 123.554C184.92 123.927 184.733 124.506 184.733 125.29V129H183.515V122H184.733V123.008C185.228 122.215 185.984 121.818 187.001 121.818Z" fill="#A6ACBE"/>
<path d="M345.197 122.364C345.197 123.111 345.001 123.769 344.609 124.338L341.515 129H339.667L341.907 125.71H341.739C340.722 125.71 339.887 125.402 339.233 124.786C338.589 124.161 338.267 123.353 338.267 122.364C338.267 121.375 338.589 120.572 339.233 119.956C339.887 119.331 340.722 119.018 341.739 119.018C342.757 119.018 343.587 119.331 344.231 119.956C344.875 120.572 345.197 121.375 345.197 122.364ZM339.877 122.364C339.877 122.905 340.05 123.344 340.395 123.68C340.75 124.016 341.198 124.184 341.739 124.184C342.281 124.184 342.724 124.021 343.069 123.694C343.415 123.358 343.587 122.915 343.587 122.364C343.587 121.813 343.415 121.375 343.069 121.048C342.724 120.712 342.281 120.544 341.739 120.544C341.198 120.544 340.75 120.712 340.395 121.048C340.05 121.375 339.877 121.813 339.877 122.364ZM346.265 128.86C346.06 129.065 345.812 129.168 345.523 129.168C345.234 129.168 344.986 129.065 344.781 128.86C344.576 128.655 344.473 128.407 344.473 128.118C344.473 127.829 344.571 127.581 344.767 127.376C344.972 127.171 345.224 127.068 345.523 127.068C345.812 127.068 346.06 127.171 346.265 127.376C346.47 127.581 346.573 127.829 346.573 128.118C346.573 128.407 346.47 128.655 346.265 128.86ZM352.115 123.204C352.825 123.372 353.399 123.703 353.837 124.198C354.285 124.683 354.509 125.295 354.509 126.032C354.509 127.012 354.178 127.782 353.515 128.342C352.853 128.902 352.041 129.182 351.079 129.182C350.333 129.182 349.661 129.009 349.063 128.664C348.475 128.319 348.051 127.815 347.789 127.152L349.161 126.354C349.451 127.194 350.09 127.614 351.079 127.614C351.639 127.614 352.083 127.474 352.409 127.194C352.736 126.905 352.899 126.517 352.899 126.032C352.899 125.547 352.736 125.164 352.409 124.884C352.083 124.604 351.639 124.464 351.079 124.464H350.715L350.071 123.498L352.185 120.712H348.083V119.2H354.103V120.572L352.115 123.204Z" fill="black"/>
<path d="M90.656 194.182C89.172 194.182 87.9447 193.692 86.974 192.712C86.0127 191.732 85.532 190.528 85.532 189.1C85.532 187.672 86.0127 186.468 86.974 185.488C87.9447 184.508 89.172 184.018 90.656 184.018C91.552 184.018 92.3733 184.233 93.12 184.662C93.876 185.091 94.464 185.67 94.884 186.398L93.75 187.056C93.47 186.515 93.05 186.085 92.49 185.768C91.9393 185.441 91.328 185.278 90.656 185.278C89.5267 185.278 88.6027 185.642 87.884 186.37C87.1747 187.098 86.82 188.008 86.82 189.1C86.82 190.183 87.1747 191.088 87.884 191.816C88.6027 192.544 89.5267 192.908 90.656 192.908C91.328 192.908 91.9393 192.749 92.49 192.432C93.05 192.105 93.47 191.676 93.75 191.144L94.884 191.788C94.4733 192.516 93.89 193.099 93.134 193.538C92.378 193.967 91.552 194.182 90.656 194.182ZM102.141 187H103.359V194H102.141V192.796C101.535 193.72 100.653 194.182 99.4953 194.182C98.5153 194.182 97.6799 193.827 96.9893 193.118C96.2986 192.399 95.9533 191.527 95.9533 190.5C95.9533 189.473 96.2986 188.605 96.9893 187.896C97.6799 187.177 98.5153 186.818 99.4953 186.818C100.653 186.818 101.535 187.28 102.141 188.204V187ZM99.6493 193.006C100.359 193.006 100.951 192.768 101.427 192.292C101.903 191.807 102.141 191.209 102.141 190.5C102.141 189.791 101.903 189.198 101.427 188.722C100.951 188.237 100.359 187.994 99.6493 187.994C98.9493 187.994 98.3613 188.237 97.8853 188.722C97.4093 189.198 97.1713 189.791 97.1713 190.5C97.1713 191.209 97.4093 191.807 97.8853 192.292C98.3613 192.768 98.9493 193.006 99.6493 193.006ZM105.345 194V183.78H106.563V194H105.345ZM113.461 187H114.777L111.977 194H110.549L107.749 187H109.065L111.263 192.698L113.461 187ZM116.563 185.726C116.33 185.726 116.134 185.647 115.975 185.488C115.816 185.329 115.737 185.138 115.737 184.914C115.737 184.69 115.816 184.499 115.975 184.34C116.134 184.172 116.33 184.088 116.563 184.088C116.787 184.088 116.978 184.172 117.137 184.34C117.296 184.499 117.375 184.69 117.375 184.914C117.375 185.138 117.296 185.329 117.137 185.488C116.978 185.647 116.787 185.726 116.563 185.726ZM115.947 194V187H117.165V194H115.947ZM122.649 186.818C123.47 186.818 124.128 187.079 124.623 187.602C125.118 188.115 125.365 188.815 125.365 189.702V194H124.147V189.772C124.147 189.203 123.993 188.764 123.685 188.456C123.377 188.139 122.952 187.98 122.411 187.98C121.804 187.98 121.314 188.171 120.941 188.554C120.568 188.927 120.381 189.506 120.381 190.29V194H119.163V187H120.381V188.008C120.876 187.215 121.632 186.818 122.649 186.818ZM134.135 194.182C133.221 194.182 132.437 193.967 131.783 193.538C131.139 193.109 130.687 192.521 130.425 191.774L131.545 191.13C131.928 192.315 132.801 192.908 134.163 192.908C134.835 192.908 135.349 192.773 135.703 192.502C136.058 192.222 136.235 191.853 136.235 191.396C136.235 190.929 136.058 190.579 135.703 190.346C135.349 190.113 134.756 189.865 133.925 189.604C133.515 189.473 133.202 189.371 132.987 189.296C132.773 189.212 132.502 189.091 132.175 188.932C131.858 188.764 131.62 188.596 131.461 188.428C131.303 188.251 131.158 188.022 131.027 187.742C130.906 187.462 130.845 187.145 130.845 186.79C130.845 185.941 131.144 185.269 131.741 184.774C132.339 184.27 133.067 184.018 133.925 184.018C134.7 184.018 135.372 184.214 135.941 184.606C136.52 184.998 136.954 185.516 137.243 186.16L136.151 186.79C135.731 185.782 134.989 185.278 133.925 185.278C133.393 185.278 132.964 185.409 132.637 185.67C132.311 185.931 132.147 186.286 132.147 186.734C132.147 187.163 132.301 187.49 132.609 187.714C132.917 187.938 133.449 188.171 134.205 188.414C134.476 188.498 134.667 188.559 134.779 188.596C134.891 188.633 135.064 188.699 135.297 188.792C135.54 188.885 135.717 188.96 135.829 189.016C135.941 189.072 136.091 189.151 136.277 189.254C136.473 189.357 136.618 189.455 136.711 189.548C136.805 189.641 136.912 189.758 137.033 189.898C137.164 190.029 137.257 190.164 137.313 190.304C137.369 190.444 137.416 190.607 137.453 190.794C137.5 190.971 137.523 191.163 137.523 191.368C137.523 192.227 137.211 192.913 136.585 193.426C135.96 193.93 135.143 194.182 134.135 194.182ZM142.682 188.176H140.82V191.97C140.82 192.315 140.885 192.563 141.016 192.712C141.156 192.852 141.366 192.927 141.646 192.936C141.926 192.936 142.271 192.927 142.682 192.908V194C141.618 194.14 140.839 194.056 140.344 193.748C139.849 193.431 139.602 192.838 139.602 191.97V188.176H138.216V187H139.602V185.404L140.82 185.04V187H142.682V188.176ZM144.763 191.06C144.884 191.685 145.169 192.171 145.617 192.516C146.074 192.861 146.634 193.034 147.297 193.034C148.221 193.034 148.893 192.693 149.313 192.012L150.349 192.6C149.667 193.655 148.641 194.182 147.269 194.182C146.158 194.182 145.253 193.837 144.553 193.146C143.862 192.446 143.517 191.564 143.517 190.5C143.517 189.445 143.857 188.568 144.539 187.868C145.22 187.168 146.102 186.818 147.185 186.818C148.211 186.818 149.047 187.182 149.691 187.91C150.344 188.629 150.671 189.497 150.671 190.514C150.671 190.691 150.657 190.873 150.629 191.06H144.763ZM147.185 187.966C146.531 187.966 145.99 188.153 145.561 188.526C145.131 188.89 144.865 189.38 144.763 189.996H149.439C149.336 189.333 149.075 188.829 148.655 188.484C148.235 188.139 147.745 187.966 147.185 187.966ZM160.183 187H161.457L159.287 194H158.041L156.403 188.82L154.765 194H153.519L151.349 187H152.623L154.163 192.32L155.815 187H156.991L158.643 192.334L160.183 187ZM168.373 187H169.591V194H168.373V192.796C167.767 193.72 166.885 194.182 165.727 194.182C164.747 194.182 163.912 193.827 163.221 193.118C162.531 192.399 162.185 191.527 162.185 190.5C162.185 189.473 162.531 188.605 163.221 187.896C163.912 187.177 164.747 186.818 165.727 186.818C166.885 186.818 167.767 187.28 168.373 188.204V187ZM165.881 193.006C166.591 193.006 167.183 192.768 167.659 192.292C168.135 191.807 168.373 191.209 168.373 190.5C168.373 189.791 168.135 189.198 167.659 188.722C167.183 188.237 166.591 187.994 165.881 187.994C165.181 187.994 164.593 188.237 164.117 188.722C163.641 189.198 163.403 189.791 163.403 190.5C163.403 191.209 163.641 191.807 164.117 192.292C164.593 192.768 165.181 193.006 165.881 193.006ZM172.795 188.176C173.196 187.308 173.924 186.874 174.979 186.874V188.148C174.381 188.12 173.868 188.279 173.439 188.624C173.009 188.969 172.795 189.525 172.795 190.29V194H171.577V187H172.795V188.176ZM181.724 184.2H182.942V194H181.724V192.796C181.117 193.72 180.235 194.182 179.078 194.182C178.098 194.182 177.262 193.827 176.572 193.118C175.881 192.399 175.536 191.527 175.536 190.5C175.536 189.473 175.881 188.605 176.572 187.896C177.262 187.177 178.098 186.818 179.078 186.818C180.235 186.818 181.117 187.28 181.724 188.204V184.2ZM179.232 193.006C179.941 193.006 180.534 192.768 181.01 192.292C181.486 191.807 181.724 191.209 181.724 190.5C181.724 189.791 181.486 189.198 181.01 188.722C180.534 188.237 179.941 187.994 179.232 187.994C178.532 187.994 177.944 188.237 177.468 188.722C176.992 189.198 176.754 189.791 176.754 190.5C176.754 191.209 176.992 191.807 177.468 192.292C177.944 192.768 178.532 193.006 179.232 193.006Z" fill="#A6ACBE"/>
<path d="M342.581 188.904C343.543 189.436 344.023 190.229 344.023 191.284C344.023 192.18 343.711 192.889 343.085 193.412C342.46 193.925 341.629 194.182 340.593 194.182C339.557 194.182 338.722 193.925 338.087 193.412C337.462 192.889 337.149 192.18 337.149 191.284C337.149 190.78 337.275 190.323 337.527 189.912C337.779 189.492 338.134 189.156 338.591 188.904C337.854 188.419 337.485 187.728 337.485 186.832C337.485 185.936 337.784 185.245 338.381 184.76C338.979 184.265 339.716 184.018 340.593 184.018C341.461 184.018 342.194 184.265 342.791 184.76C343.398 185.245 343.701 185.936 343.701 186.832C343.701 187.728 343.328 188.419 342.581 188.904ZM340.593 185.544C340.155 185.544 339.795 185.661 339.515 185.894C339.235 186.127 339.095 186.463 339.095 186.902C339.095 187.322 339.235 187.653 339.515 187.896C339.805 188.139 340.164 188.26 340.593 188.26C341.013 188.26 341.368 188.139 341.657 187.896C341.947 187.653 342.091 187.322 342.091 186.902C342.091 186.463 341.947 186.127 341.657 185.894C341.377 185.661 341.023 185.544 340.593 185.544ZM340.593 192.656C341.135 192.656 341.573 192.525 341.909 192.264C342.245 191.993 342.413 191.615 342.413 191.13C342.413 190.645 342.245 190.271 341.909 190.01C341.573 189.739 341.135 189.604 340.593 189.604C340.043 189.604 339.599 189.739 339.263 190.01C338.927 190.271 338.759 190.645 338.759 191.13C338.759 191.615 338.927 191.993 339.263 192.264C339.599 192.525 340.043 192.656 340.593 192.656ZM347.181 193.86C346.976 194.065 346.728 194.168 346.439 194.168C346.15 194.168 345.902 194.065 345.697 193.86C345.492 193.655 345.389 193.407 345.389 193.118C345.389 192.829 345.487 192.581 345.683 192.376C345.888 192.171 346.14 192.068 346.439 192.068C346.728 192.068 346.976 192.171 347.181 192.376C347.386 192.581 347.489 192.829 347.489 193.118C347.489 193.407 347.386 193.655 347.181 193.86ZM354.651 187.364C354.651 188.111 354.455 188.769 354.063 189.338L350.969 194H349.121L351.361 190.71H351.193C350.176 190.71 349.34 190.402 348.687 189.786C348.043 189.161 347.721 188.353 347.721 187.364C347.721 186.375 348.043 185.572 348.687 184.956C349.34 184.331 350.176 184.018 351.193 184.018C352.21 184.018 353.041 184.331 353.685 184.956C354.329 185.572 354.651 186.375 354.651 187.364ZM349.331 187.364C349.331 187.905 349.504 188.344 349.849 188.68C350.204 189.016 350.652 189.184 351.193 189.184C351.734 189.184 352.178 189.021 352.523 188.694C352.868 188.358 353.041 187.915 353.041 187.364C353.041 186.813 352.868 186.375 352.523 186.048C352.178 185.712 351.734 185.544 351.193 185.544C350.652 185.544 350.204 185.712 349.849 186.048C349.504 186.375 349.331 186.813 349.331 187.364Z" fill="black"/>
<circle cx="50" cy="189" r="20" fill="#EBEBEB"/>
<path d="M91.86 259L89.662 255.248H87.352V259H86.05V249.2H89.97C90.81 249.2 91.5287 249.499 92.126 250.096C92.7233 250.684 93.022 251.398 93.022 252.238C93.022 252.873 92.8307 253.451 92.448 253.974C92.0747 254.497 91.5893 254.865 90.992 255.08L93.302 259H91.86ZM87.352 250.418V254.072H89.97C90.4553 254.072 90.866 253.895 91.202 253.54C91.5473 253.176 91.72 252.742 91.72 252.238C91.72 251.734 91.5473 251.305 91.202 250.95C90.866 250.595 90.4553 250.418 89.97 250.418H87.352ZM100.063 252H101.281V259H100.063V257.796C99.4565 258.72 98.5745 259.182 97.4171 259.182C96.4371 259.182 95.6018 258.827 94.9111 258.118C94.2205 257.399 93.8751 256.527 93.8751 255.5C93.8751 254.473 94.2205 253.605 94.9111 252.896C95.6018 252.177 96.4371 251.818 97.4171 251.818C98.5745 251.818 99.4565 252.28 100.063 253.204V252ZM97.5711 258.006C98.2805 258.006 98.8731 257.768 99.3491 257.292C99.8251 256.807 100.063 256.209 100.063 255.5C100.063 254.791 99.8251 254.198 99.3491 253.722C98.8731 253.237 98.2805 252.994 97.5711 252.994C96.8711 252.994 96.2831 253.237 95.8071 253.722C95.3311 254.198 95.0931 254.791 95.0931 255.5C95.0931 256.209 95.3311 256.807 95.8071 257.292C96.2831 257.768 96.8711 258.006 97.5711 258.006ZM103.267 259V248.78H104.485V259H103.267ZM110.347 251.818C111.327 251.818 112.162 252.177 112.853 252.896C113.543 253.605 113.889 254.473 113.889 255.5C113.889 256.527 113.543 257.399 112.853 258.118C112.162 258.827 111.327 259.182 110.347 259.182C109.189 259.182 108.307 258.72 107.701 257.796V261.8H106.483V252H107.701V253.204C108.307 252.28 109.189 251.818 110.347 251.818ZM110.193 258.006C110.893 258.006 111.481 257.768 111.957 257.292C112.433 256.807 112.671 256.209 112.671 255.5C112.671 254.791 112.433 254.198 111.957 253.722C111.481 253.237 110.893 252.994 110.193 252.994C109.483 252.994 108.891 253.237 108.415 253.722C107.939 254.198 107.701 254.791 107.701 255.5C107.701 256.209 107.939 256.807 108.415 257.292C108.891 257.768 109.483 258.006 110.193 258.006ZM118.968 251.818C119.789 251.818 120.447 252.079 120.942 252.602C121.437 253.115 121.684 253.815 121.684 254.702V259H120.466V254.772C120.466 254.203 120.312 253.764 120.004 253.456C119.696 253.139 119.271 252.98 118.73 252.98C118.123 252.98 117.633 253.171 117.26 253.554C116.887 253.927 116.7 254.506 116.7 255.29V259H115.482V249.2H116.7V253.008C117.195 252.215 117.951 251.818 118.968 251.818ZM133.1 259L130.902 255.248H128.592V259H127.29V249.2H131.21C132.05 249.2 132.769 249.499 133.366 250.096C133.964 250.684 134.262 251.398 134.262 252.238C134.262 252.873 134.071 253.451 133.688 253.974C133.315 254.497 132.83 254.865 132.232 255.08L134.542 259H133.1ZM128.592 250.418V254.072H131.21C131.696 254.072 132.106 253.895 132.442 253.54C132.788 253.176 132.96 252.742 132.96 252.238C132.96 251.734 132.788 251.305 132.442 250.95C132.106 250.595 131.696 250.418 131.21 250.418H128.592ZM136.479 250.726C136.246 250.726 136.05 250.647 135.891 250.488C135.732 250.329 135.653 250.138 135.653 249.914C135.653 249.69 135.732 249.499 135.891 249.34C136.05 249.172 136.246 249.088 136.479 249.088C136.703 249.088 136.894 249.172 137.053 249.34C137.212 249.499 137.291 249.69 137.291 249.914C137.291 250.138 137.212 250.329 137.053 250.488C136.894 250.647 136.703 250.726 136.479 250.726ZM135.863 259V252H137.081V259H135.863ZM142.369 259.182C141.314 259.182 140.437 258.832 139.737 258.132C139.037 257.423 138.687 256.545 138.687 255.5C138.687 254.455 139.037 253.582 139.737 252.882C140.437 252.173 141.314 251.818 142.369 251.818C143.06 251.818 143.68 251.986 144.231 252.322C144.782 252.649 145.192 253.092 145.463 253.652L144.441 254.24C144.264 253.867 143.988 253.568 143.615 253.344C143.251 253.12 142.836 253.008 142.369 253.008C141.669 253.008 141.081 253.246 140.605 253.722C140.138 254.198 139.905 254.791 139.905 255.5C139.905 256.2 140.138 256.788 140.605 257.264C141.081 257.74 141.669 257.978 142.369 257.978C142.836 257.978 143.256 257.871 143.629 257.656C144.002 257.432 144.287 257.133 144.483 256.76L145.519 257.362C145.22 257.913 144.791 258.356 144.231 258.692C143.671 259.019 143.05 259.182 142.369 259.182ZM150.348 251.818C151.169 251.818 151.827 252.079 152.322 252.602C152.816 253.115 153.064 253.815 153.064 254.702V259H151.846V254.772C151.846 254.203 151.692 253.764 151.384 253.456C151.076 253.139 150.651 252.98 150.11 252.98C149.503 252.98 149.013 253.171 148.64 253.554C148.266 253.927 148.08 254.506 148.08 255.29V259H146.862V249.2H148.08V253.008C148.574 252.215 149.33 251.818 150.348 251.818ZM160.7 252H161.918V259H160.7V257.796C160.093 258.72 159.211 259.182 158.054 259.182C157.074 259.182 156.239 258.827 155.548 258.118C154.857 257.399 154.512 256.527 154.512 255.5C154.512 254.473 154.857 253.605 155.548 252.896C156.239 252.177 157.074 251.818 158.054 251.818C159.211 251.818 160.093 252.28 160.7 253.204V252ZM158.208 258.006C158.917 258.006 159.51 257.768 159.986 257.292C160.462 256.807 160.7 256.209 160.7 255.5C160.7 254.791 160.462 254.198 159.986 253.722C159.51 253.237 158.917 252.994 158.208 252.994C157.508 252.994 156.92 253.237 156.444 253.722C155.968 254.198 155.73 254.791 155.73 255.5C155.73 256.209 155.968 256.807 156.444 257.292C156.92 257.768 157.508 258.006 158.208 258.006ZM165.121 253.176C165.523 252.308 166.251 251.874 167.305 251.874V253.148C166.708 253.12 166.195 253.279 165.765 253.624C165.336 253.969 165.121 254.525 165.121 255.29V259H163.903V252H165.121V253.176ZM174.05 249.2H175.268V259H174.05V257.796C173.444 258.72 172.562 259.182 171.404 259.182C170.424 259.182 169.589 258.827 168.898 258.118C168.208 257.399 167.862 256.527 167.862 255.5C167.862 254.473 168.208 253.605 168.898 252.896C169.589 252.177 170.424 251.818 171.404 251.818C172.562 251.818 173.444 252.28 174.05 253.204V249.2ZM171.558 258.006C172.268 258.006 172.86 257.768 173.336 257.292C173.812 256.807 174.05 256.209 174.05 255.5C174.05 254.791 173.812 254.198 173.336 253.722C172.86 253.237 172.268 252.994 171.558 252.994C170.858 252.994 170.27 253.237 169.794 253.722C169.318 254.198 169.08 254.791 169.08 255.5C169.08 256.209 169.318 256.807 169.794 257.292C170.27 257.768 170.858 258.006 171.558 258.006ZM178.29 253.89C178.29 254.161 178.425 254.38 178.696 254.548C178.967 254.707 179.293 254.837 179.676 254.94C180.059 255.033 180.441 255.145 180.824 255.276C181.207 255.397 181.533 255.612 181.804 255.92C182.075 256.219 182.21 256.606 182.21 257.082C182.21 257.717 181.963 258.225 181.468 258.608C180.983 258.991 180.357 259.182 179.592 259.182C178.911 259.182 178.327 259.033 177.842 258.734C177.357 258.435 177.011 258.039 176.806 257.544L177.856 256.942C177.968 257.278 178.178 257.544 178.486 257.74C178.794 257.936 179.163 258.034 179.592 258.034C179.993 258.034 180.325 257.959 180.586 257.81C180.847 257.651 180.978 257.409 180.978 257.082C180.978 256.811 180.843 256.597 180.572 256.438C180.301 256.27 179.975 256.139 179.592 256.046C179.209 255.943 178.827 255.827 178.444 255.696C178.061 255.565 177.735 255.351 177.464 255.052C177.193 254.753 177.058 254.371 177.058 253.904C177.058 253.297 177.291 252.798 177.758 252.406C178.234 252.014 178.827 251.818 179.536 251.818C180.105 251.818 180.609 251.949 181.048 252.21C181.496 252.462 181.832 252.817 182.056 253.274L181.034 253.848C180.782 253.251 180.283 252.952 179.536 252.952C179.191 252.952 178.897 253.036 178.654 253.204C178.411 253.363 178.29 253.591 178.29 253.89Z" fill="#A6ACBE"/>
<path d="M342.363 253.904C343.324 254.436 343.805 255.229 343.805 256.284C343.805 257.18 343.492 257.889 342.867 258.412C342.241 258.925 341.411 259.182 340.375 259.182C339.339 259.182 338.503 258.925 337.869 258.412C337.243 257.889 336.931 257.18 336.931 256.284C336.931 255.78 337.057 255.323 337.309 254.912C337.561 254.492 337.915 254.156 338.373 253.904C337.635 253.419 337.267 252.728 337.267 251.832C337.267 250.936 337.565 250.245 338.163 249.76C338.76 249.265 339.497 249.018 340.375 249.018C341.243 249.018 341.975 249.265 342.573 249.76C343.179 250.245 343.483 250.936 343.483 251.832C343.483 252.728 343.109 253.419 342.363 253.904ZM340.375 250.544C339.936 250.544 339.577 250.661 339.297 250.894C339.017 251.127 338.877 251.463 338.877 251.902C338.877 252.322 339.017 252.653 339.297 252.896C339.586 253.139 339.945 253.26 340.375 253.26C340.795 253.26 341.149 253.139 341.439 252.896C341.728 252.653 341.873 252.322 341.873 251.902C341.873 251.463 341.728 251.127 341.439 250.894C341.159 250.661 340.804 250.544 340.375 250.544ZM340.375 257.656C340.916 257.656 341.355 257.525 341.691 257.264C342.027 256.993 342.195 256.615 342.195 256.13C342.195 255.645 342.027 255.271 341.691 255.01C341.355 254.739 340.916 254.604 340.375 254.604C339.824 254.604 339.381 254.739 339.045 255.01C338.709 255.271 338.541 255.645 338.541 256.13C338.541 256.615 338.709 256.993 339.045 257.264C339.381 257.525 339.824 257.656 340.375 257.656ZM346.962 258.86C346.757 259.065 346.51 259.168 346.22 259.168C345.931 259.168 345.684 259.065 345.478 258.86C345.273 258.655 345.17 258.407 345.17 258.118C345.17 257.829 345.268 257.581 345.464 257.376C345.67 257.171 345.922 257.068 346.22 257.068C346.51 257.068 346.757 257.171 346.962 257.376C347.168 257.581 347.27 257.829 347.27 258.118C347.27 258.407 347.168 258.655 346.962 258.86ZM348.347 249.2H354.577V250.6L351.133 259H349.439L352.827 250.74H348.347V249.2Z" fill="black"/>
<circle cx="50" cy="254" r="20" fill="#EBEBEB"/>
<path d="M91.65 318.918C92.098 319.133 92.4527 319.441 92.714 319.842C92.9847 320.243 93.12 320.705 93.12 321.228C93.12 322.012 92.8447 322.67 92.294 323.202C91.7433 323.734 91.0713 324 90.278 324H86.05V314.2H89.97C90.7353 314.2 91.384 314.457 91.916 314.97C92.448 315.483 92.714 316.118 92.714 316.874C92.714 317.742 92.3593 318.423 91.65 318.918ZM89.97 315.418H87.352V318.414H89.97C90.3807 318.414 90.726 318.269 91.006 317.98C91.286 317.691 91.426 317.336 91.426 316.916C91.426 316.505 91.2813 316.155 90.992 315.866C90.712 315.567 90.3713 315.418 89.97 315.418ZM90.278 322.782C90.7167 322.782 91.0853 322.628 91.384 322.32C91.6827 322.012 91.832 321.634 91.832 321.186C91.832 320.747 91.678 320.374 91.37 320.066C91.0713 319.758 90.7073 319.604 90.278 319.604H87.352V322.782H90.278ZM95.5723 321.06C95.6936 321.685 95.9783 322.171 96.4263 322.516C96.8836 322.861 97.4436 323.034 98.1063 323.034C99.0303 323.034 99.7023 322.693 100.122 322.012L101.158 322.6C100.477 323.655 99.4503 324.182 98.0783 324.182C96.9676 324.182 96.0623 323.837 95.3623 323.146C94.6716 322.446 94.3263 321.564 94.3263 320.5C94.3263 319.445 94.667 318.568 95.3483 317.868C96.0296 317.168 96.9116 316.818 97.9943 316.818C99.021 316.818 99.8563 317.182 100.5 317.91C101.154 318.629 101.48 319.497 101.48 320.514C101.48 320.691 101.466 320.873 101.438 321.06H95.5723ZM97.9943 317.966C97.341 317.966 96.7996 318.153 96.3703 318.526C95.941 318.89 95.675 319.38 95.5723 319.996H100.248C100.146 319.333 99.8843 318.829 99.4643 318.484C99.0443 318.139 98.5543 317.966 97.9943 317.966ZM104.238 318.176C104.64 317.308 105.368 316.874 106.422 316.874V318.148C105.825 318.12 105.312 318.279 104.882 318.624C104.453 318.969 104.238 319.525 104.238 320.29V324H103.02V317H104.238V318.176ZM111.24 316.818C112.061 316.818 112.719 317.079 113.214 317.602C113.709 318.115 113.956 318.815 113.956 319.702V324H112.738V319.772C112.738 319.203 112.584 318.764 112.276 318.456C111.968 318.139 111.543 317.98 111.002 317.98C110.395 317.98 109.905 318.171 109.532 318.554C109.159 318.927 108.972 319.506 108.972 320.29V324H107.754V317H108.972V318.008C109.467 317.215 110.223 316.818 111.24 316.818ZM121.592 317H122.81V324H121.592V322.796C120.986 323.72 120.104 324.182 118.946 324.182C117.966 324.182 117.131 323.827 116.44 323.118C115.75 322.399 115.404 321.527 115.404 320.5C115.404 319.473 115.75 318.605 116.44 317.896C117.131 317.177 117.966 316.818 118.946 316.818C120.104 316.818 120.986 317.28 121.592 318.204V317ZM119.1 323.006C119.81 323.006 120.402 322.768 120.878 322.292C121.354 321.807 121.592 321.209 121.592 320.5C121.592 319.791 121.354 319.198 120.878 318.722C120.402 318.237 119.81 317.994 119.1 317.994C118.4 317.994 117.812 318.237 117.336 318.722C116.86 319.198 116.622 319.791 116.622 320.5C116.622 321.209 116.86 321.807 117.336 322.292C117.812 322.768 118.4 323.006 119.1 323.006ZM126.014 318.176C126.415 317.308 127.143 316.874 128.198 316.874V318.148C127.601 318.12 127.087 318.279 126.658 318.624C126.229 318.969 126.014 319.525 126.014 320.29V324H124.796V317H126.014V318.176ZM134.943 314.2H136.161V324H134.943V322.796C134.336 323.72 133.454 324.182 132.297 324.182C131.317 324.182 130.481 323.827 129.791 323.118C129.1 322.399 128.755 321.527 128.755 320.5C128.755 319.473 129.1 318.605 129.791 317.896C130.481 317.177 131.317 316.818 132.297 316.818C133.454 316.818 134.336 317.28 134.943 318.204V314.2ZM132.451 323.006C133.16 323.006 133.753 322.768 134.229 322.292C134.705 321.807 134.943 321.209 134.943 320.5C134.943 319.791 134.705 319.198 134.229 318.722C133.753 318.237 133.16 317.994 132.451 317.994C131.751 317.994 131.163 318.237 130.687 318.722C130.211 319.198 129.973 319.791 129.973 320.5C129.973 321.209 130.211 321.807 130.687 322.292C131.163 322.768 131.751 323.006 132.451 323.006ZM151.082 314.2V324H149.794V316.342L146.588 321.676H146.42L143.214 316.356V324H141.912V314.2H143.382L146.504 319.38L149.612 314.2H151.082ZM158.022 317H159.24V324H158.022V322.992C157.527 323.785 156.771 324.182 155.754 324.182C154.932 324.182 154.274 323.925 153.78 323.412C153.285 322.889 153.038 322.185 153.038 321.298V317H154.256V321.228C154.256 321.797 154.41 322.241 154.718 322.558C155.026 322.866 155.45 323.02 155.992 323.02C156.598 323.02 157.088 322.833 157.462 322.46C157.835 322.077 158.022 321.494 158.022 320.71V317ZM162.452 318.176C162.853 317.308 163.581 316.874 164.636 316.874V318.148C164.039 318.12 163.525 318.279 163.096 318.624C162.667 318.969 162.452 319.525 162.452 320.29V324H161.234V317H162.452V318.176ZM169.832 316.818C170.812 316.818 171.647 317.177 172.338 317.896C173.029 318.605 173.374 319.473 173.374 320.5C173.374 321.527 173.029 322.399 172.338 323.118C171.647 323.827 170.812 324.182 169.832 324.182C168.675 324.182 167.793 323.72 167.186 322.796V326.8H165.968V317H167.186V318.204C167.793 317.28 168.675 316.818 169.832 316.818ZM169.678 323.006C170.378 323.006 170.966 322.768 171.442 322.292C171.918 321.807 172.156 321.209 172.156 320.5C172.156 319.791 171.918 319.198 171.442 318.722C170.966 318.237 170.378 317.994 169.678 317.994C168.969 317.994 168.376 318.237 167.9 318.722C167.424 319.198 167.186 319.791 167.186 320.5C167.186 321.209 167.424 321.807 167.9 322.292C168.376 322.768 168.969 323.006 169.678 323.006ZM178.453 316.818C179.275 316.818 179.933 317.079 180.427 317.602C180.922 318.115 181.169 318.815 181.169 319.702V324H179.951V319.772C179.951 319.203 179.797 318.764 179.489 318.456C179.181 318.139 178.757 317.98 178.215 317.98C177.609 317.98 177.119 318.171 176.745 318.554C176.372 318.927 176.185 319.506 176.185 320.29V324H174.967V314.2H176.185V318.008C176.68 317.215 177.436 316.818 178.453 316.818ZM187.745 317H189.047L186.191 324.434C185.893 325.227 185.473 325.829 184.931 326.24C184.399 326.66 183.783 326.847 183.083 326.8V325.666C183.942 325.731 184.572 325.255 184.973 324.238L185.099 323.972L182.047 317H183.349L185.729 322.488L187.745 317Z" fill="#A6ACBE"/>
<path d="M341.816 318.904C342.777 319.436 343.258 320.229 343.258 321.284C343.258 322.18 342.945 322.889 342.32 323.412C341.694 323.925 340.864 324.182 339.828 324.182C338.792 324.182 337.956 323.925 337.322 323.412C336.696 322.889 336.384 322.18 336.384 321.284C336.384 320.78 336.51 320.323 336.762 319.912C337.014 319.492 337.368 319.156 337.826 318.904C337.088 318.419 336.72 317.728 336.72 316.832C336.72 315.936 337.018 315.245 337.616 314.76C338.213 314.265 338.95 314.018 339.828 314.018C340.696 314.018 341.428 314.265 342.026 314.76C342.632 315.245 342.936 315.936 342.936 316.832C342.936 317.728 342.562 318.419 341.816 318.904ZM339.828 315.544C339.389 315.544 339.03 315.661 338.75 315.894C338.47 316.127 338.33 316.463 338.33 316.902C338.33 317.322 338.47 317.653 338.75 317.896C339.039 318.139 339.398 318.26 339.828 318.26C340.248 318.26 340.602 318.139 340.892 317.896C341.181 317.653 341.326 317.322 341.326 316.902C341.326 316.463 341.181 316.127 340.892 315.894C340.612 315.661 340.257 315.544 339.828 315.544ZM339.828 322.656C340.369 322.656 340.808 322.525 341.144 322.264C341.48 321.993 341.648 321.615 341.648 321.13C341.648 320.645 341.48 320.271 341.144 320.01C340.808 319.739 340.369 319.604 339.828 319.604C339.277 319.604 338.834 319.739 338.498 320.01C338.162 320.271 337.994 320.645 337.994 321.13C337.994 321.615 338.162 321.993 338.498 322.264C338.834 322.525 339.277 322.656 339.828 322.656ZM346.415 323.86C346.21 324.065 345.963 324.168 345.673 324.168C345.384 324.168 345.137 324.065 344.931 323.86C344.726 323.655 344.623 323.407 344.623 323.118C344.623 322.829 344.721 322.581 344.917 322.376C345.123 322.171 345.375 322.068 345.673 322.068C345.963 322.068 346.21 322.171 346.415 322.376C346.621 322.581 346.723 322.829 346.723 323.118C346.723 323.407 346.621 323.655 346.415 323.86ZM348.024 324V322.74L351.44 319.254C352.271 318.423 352.686 317.705 352.686 317.098C352.686 316.622 352.541 316.253 352.252 315.992C351.972 315.721 351.613 315.586 351.174 315.586C350.353 315.586 349.746 315.992 349.354 316.804L347.996 316.006C348.304 315.353 348.738 314.858 349.298 314.522C349.858 314.186 350.479 314.018 351.16 314.018C352.019 314.018 352.756 314.289 353.372 314.83C353.988 315.371 354.296 316.109 354.296 317.042C354.296 318.041 353.741 319.105 352.63 320.234L350.418 322.446H354.478V324H348.024Z" fill="black"/>
<circle cx="50" cy="319" r="20" fill="#EBEBEB"/>
<path d="M92.504 389L91.706 386.802H87.296L86.498 389H85.112L88.766 379.2H90.236L93.89 389H92.504ZM87.744 385.584H91.258L89.494 380.754L87.744 385.584ZM96.2781 383.176C96.6794 382.308 97.4074 381.874 98.4621 381.874V383.148C97.8648 383.12 97.3514 383.279 96.9221 383.624C96.4928 383.969 96.2781 384.525 96.2781 385.29V389H95.0601V382H96.2781V383.176ZM99.7938 389V378.78H101.012V389H99.7938ZM103.864 386.06C103.985 386.685 104.27 387.171 104.718 387.516C105.175 387.861 105.735 388.034 106.398 388.034C107.322 388.034 107.994 387.693 108.414 387.012L109.45 387.6C108.769 388.655 107.742 389.182 106.37 389.182C105.259 389.182 104.354 388.837 103.654 388.146C102.963 387.446 102.618 386.564 102.618 385.5C102.618 384.445 102.959 383.568 103.64 382.868C104.321 382.168 105.203 381.818 106.286 381.818C107.313 381.818 108.148 382.182 108.792 382.91C109.445 383.629 109.772 384.497 109.772 385.514C109.772 385.691 109.758 385.873 109.73 386.06H103.864ZM106.286 382.966C105.633 382.966 105.091 383.153 104.662 383.526C104.233 383.89 103.967 384.38 103.864 384.996H108.54C108.437 384.333 108.176 383.829 107.756 383.484C107.336 383.139 106.846 382.966 106.286 382.966ZM114.798 381.818C115.619 381.818 116.277 382.079 116.772 382.602C117.267 383.115 117.514 383.815 117.514 384.702V389H116.296V384.772C116.296 384.203 116.142 383.764 115.834 383.456C115.526 383.139 115.101 382.98 114.56 382.98C113.953 382.98 113.463 383.171 113.09 383.554C112.717 383.927 112.53 384.506 112.53 385.29V389H111.312V382H112.53V383.008C113.025 382.215 113.781 381.818 114.798 381.818ZM120.208 386.06C120.33 386.685 120.614 387.171 121.062 387.516C121.52 387.861 122.08 388.034 122.742 388.034C123.666 388.034 124.338 387.693 124.758 387.012L125.794 387.6C125.113 388.655 124.086 389.182 122.714 389.182C121.604 389.182 120.698 388.837 119.998 388.146C119.308 387.446 118.962 386.564 118.962 385.5C118.962 384.445 119.303 383.568 119.984 382.868C120.666 382.168 121.548 381.818 122.63 381.818C123.657 381.818 124.492 382.182 125.136 382.91C125.79 383.629 126.116 384.497 126.116 385.514C126.116 385.691 126.102 385.873 126.074 386.06H120.208ZM122.63 382.966C121.977 382.966 121.436 383.153 121.006 383.526C120.577 383.89 120.311 384.38 120.208 384.996H124.884C124.782 384.333 124.52 383.829 124.1 383.484C123.68 383.139 123.19 382.966 122.63 382.966ZM137.233 389L135.035 385.248H132.725V389H131.423V379.2H135.343C136.183 379.2 136.901 379.499 137.499 380.096C138.096 380.684 138.395 381.398 138.395 382.238C138.395 382.873 138.203 383.451 137.821 383.974C137.447 384.497 136.962 384.865 136.365 385.08L138.675 389H137.233ZM132.725 380.418V384.072H135.343C135.828 384.072 136.239 383.895 136.575 383.54C136.92 383.176 137.093 382.742 137.093 382.238C137.093 381.734 136.92 381.305 136.575 380.95C136.239 380.595 135.828 380.418 135.343 380.418H132.725ZM145.548 388.118C144.829 388.827 143.956 389.182 142.93 389.182C141.903 389.182 141.03 388.827 140.312 388.118C139.602 387.409 139.248 386.536 139.248 385.5C139.248 384.464 139.602 383.591 140.312 382.882C141.03 382.173 141.903 381.818 142.93 381.818C143.956 381.818 144.829 382.173 145.548 382.882C146.266 383.591 146.626 384.464 146.626 385.5C146.626 386.536 146.266 387.409 145.548 388.118ZM142.93 387.992C143.63 387.992 144.218 387.754 144.694 387.278C145.17 386.802 145.408 386.209 145.408 385.5C145.408 384.791 145.17 384.198 144.694 383.722C144.218 383.246 143.63 383.008 142.93 383.008C142.239 383.008 141.656 383.246 141.18 383.722C140.704 384.198 140.466 384.791 140.466 385.5C140.466 386.209 140.704 386.802 141.18 387.278C141.656 387.754 142.239 387.992 142.93 387.992ZM152.066 381.818C153.046 381.818 153.881 382.177 154.572 382.896C155.262 383.605 155.608 384.473 155.608 385.5C155.608 386.527 155.262 387.399 154.572 388.118C153.881 388.827 153.046 389.182 152.066 389.182C150.908 389.182 150.026 388.72 149.42 387.796V389H148.202V379.2H149.42V383.204C150.026 382.28 150.908 381.818 152.066 381.818ZM151.912 388.006C152.612 388.006 153.2 387.768 153.676 387.292C154.152 386.807 154.39 386.209 154.39 385.5C154.39 384.791 154.152 384.198 153.676 383.722C153.2 383.237 152.612 382.994 151.912 382.994C151.202 382.994 150.61 383.237 150.134 383.722C149.658 384.198 149.42 384.791 149.42 385.5C149.42 386.209 149.658 386.807 150.134 387.292C150.61 387.768 151.202 388.006 151.912 388.006ZM158.055 386.06C158.176 386.685 158.461 387.171 158.909 387.516C159.366 387.861 159.926 388.034 160.589 388.034C161.513 388.034 162.185 387.693 162.605 387.012L163.641 387.6C162.96 388.655 161.933 389.182 160.561 389.182C159.45 389.182 158.545 388.837 157.845 388.146C157.154 387.446 156.809 386.564 156.809 385.5C156.809 384.445 157.15 383.568 157.831 382.868C158.512 382.168 159.394 381.818 160.477 381.818C161.504 381.818 162.339 382.182 162.983 382.91C163.636 383.629 163.963 384.497 163.963 385.514C163.963 385.691 163.949 385.873 163.921 386.06H158.055ZM160.477 382.966C159.824 382.966 159.282 383.153 158.853 383.526C158.424 383.89 158.158 384.38 158.055 384.996H162.731C162.628 384.333 162.367 383.829 161.947 383.484C161.527 383.139 161.037 382.966 160.477 382.966ZM166.721 383.176C167.122 382.308 167.85 381.874 168.905 381.874V383.148C168.308 383.12 167.794 383.279 167.365 383.624C166.936 383.969 166.721 384.525 166.721 385.29V389H165.503V382H166.721V383.176ZM174.209 383.176H172.347V386.97C172.347 387.315 172.412 387.563 172.543 387.712C172.683 387.852 172.893 387.927 173.173 387.936C173.453 387.936 173.798 387.927 174.209 387.908V389C173.145 389.14 172.366 389.056 171.871 388.748C171.376 388.431 171.129 387.838 171.129 386.97V383.176H169.743V382H171.129V380.404L172.347 380.04V382H174.209V383.176ZM176.499 383.89C176.499 384.161 176.634 384.38 176.905 384.548C177.176 384.707 177.502 384.837 177.885 384.94C178.268 385.033 178.65 385.145 179.033 385.276C179.416 385.397 179.742 385.612 180.013 385.92C180.284 386.219 180.419 386.606 180.419 387.082C180.419 387.717 180.172 388.225 179.677 388.608C179.192 388.991 178.566 389.182 177.801 389.182C177.12 389.182 176.536 389.033 176.051 388.734C175.566 388.435 175.22 388.039 175.015 387.544L176.065 386.942C176.177 387.278 176.387 387.544 176.695 387.74C177.003 387.936 177.372 388.034 177.801 388.034C178.202 388.034 178.534 387.959 178.795 387.81C179.056 387.651 179.187 387.409 179.187 387.082C179.187 386.811 179.052 386.597 178.781 386.438C178.51 386.27 178.184 386.139 177.801 386.046C177.418 385.943 177.036 385.827 176.653 385.696C176.27 385.565 175.944 385.351 175.673 385.052C175.402 384.753 175.267 384.371 175.267 383.904C175.267 383.297 175.5 382.798 175.967 382.406C176.443 382.014 177.036 381.818 177.745 381.818C178.314 381.818 178.818 381.949 179.257 382.21C179.705 382.462 180.041 382.817 180.265 383.274L179.243 383.848C178.991 383.251 178.492 382.952 177.745 382.952C177.4 382.952 177.106 383.036 176.863 383.204C176.62 383.363 176.499 383.591 176.499 383.89ZM187.718 388.118C186.999 388.827 186.126 389.182 185.1 389.182C184.073 389.182 183.2 388.827 182.482 388.118C181.772 387.409 181.418 386.536 181.418 385.5C181.418 384.464 181.772 383.591 182.482 382.882C183.2 382.173 184.073 381.818 185.1 381.818C186.126 381.818 186.999 382.173 187.718 382.882C188.436 383.591 188.796 384.464 188.796 385.5C188.796 386.536 188.436 387.409 187.718 388.118ZM185.1 387.992C185.8 387.992 186.388 387.754 186.864 387.278C187.34 386.802 187.578 386.209 187.578 385.5C187.578 384.791 187.34 384.198 186.864 383.722C186.388 383.246 185.8 383.008 185.1 383.008C184.409 383.008 183.826 383.246 183.35 383.722C182.874 384.198 182.636 384.791 182.636 385.5C182.636 386.209 182.874 386.802 183.35 387.278C183.826 387.754 184.409 387.992 185.1 387.992ZM193.858 381.818C194.679 381.818 195.337 382.079 195.832 382.602C196.326 383.115 196.574 383.815 196.574 384.702V389H195.356V384.772C195.356 384.203 195.202 383.764 194.894 383.456C194.586 383.139 194.161 382.98 193.62 382.98C193.013 382.98 192.523 383.171 192.15 383.554C191.776 383.927 191.59 384.506 191.59 385.29V389H190.372V382H191.59V383.008C192.084 382.215 192.84 381.818 193.858 381.818Z" fill="#A6ACBE"/>
<path d="M341.816 383.904C342.777 384.436 343.258 385.229 343.258 386.284C343.258 387.18 342.945 387.889 342.32 388.412C341.694 388.925 340.864 389.182 339.828 389.182C338.792 389.182 337.956 388.925 337.322 388.412C336.696 387.889 336.384 387.18 336.384 386.284C336.384 385.78 336.51 385.323 336.762 384.912C337.014 384.492 337.368 384.156 337.826 383.904C337.088 383.419 336.72 382.728 336.72 381.832C336.72 380.936 337.018 380.245 337.616 379.76C338.213 379.265 338.95 379.018 339.828 379.018C340.696 379.018 341.428 379.265 342.026 379.76C342.632 380.245 342.936 380.936 342.936 381.832C342.936 382.728 342.562 383.419 341.816 383.904ZM339.828 380.544C339.389 380.544 339.03 380.661 338.75 380.894C338.47 381.127 338.33 381.463 338.33 381.902C338.33 382.322 338.47 382.653 338.75 382.896C339.039 383.139 339.398 383.26 339.828 383.26C340.248 383.26 340.602 383.139 340.892 382.896C341.181 382.653 341.326 382.322 341.326 381.902C341.326 381.463 341.181 381.127 340.892 380.894C340.612 380.661 340.257 380.544 339.828 380.544ZM339.828 387.656C340.369 387.656 340.808 387.525 341.144 387.264C341.48 386.993 341.648 386.615 341.648 386.13C341.648 385.645 341.48 385.271 341.144 385.01C340.808 384.739 340.369 384.604 339.828 384.604C339.277 384.604 338.834 384.739 338.498 385.01C338.162 385.271 337.994 385.645 337.994 386.13C337.994 386.615 338.162 386.993 338.498 387.264C338.834 387.525 339.277 387.656 339.828 387.656ZM346.415 388.86C346.21 389.065 345.963 389.168 345.673 389.168C345.384 389.168 345.137 389.065 344.931 388.86C344.726 388.655 344.623 388.407 344.623 388.118C344.623 387.829 344.721 387.581 344.917 387.376C345.123 387.171 345.375 387.068 345.673 387.068C345.963 387.068 346.21 387.171 346.415 387.376C346.621 387.581 346.723 387.829 346.723 388.118C346.723 388.407 346.621 388.655 346.415 388.86ZM348.024 389V387.74L351.44 384.254C352.271 383.423 352.686 382.705 352.686 382.098C352.686 381.622 352.541 381.253 352.252 380.992C351.972 380.721 351.613 380.586 351.174 380.586C350.353 380.586 349.746 380.992 349.354 381.804L347.996 381.006C348.304 380.353 348.738 379.858 349.298 379.522C349.858 379.186 350.479 379.018 351.16 379.018C352.019 379.018 352.756 379.289 353.372 379.83C353.988 380.371 354.296 381.109 354.296 382.042C354.296 383.041 353.741 384.105 352.63 385.234L350.418 387.446H354.478V389H348.024Z" fill="black"/>
<circle cx="50" cy="384" r="20" fill="#EBEBEB"/>
<path d="M88.598 454.182C87.8887 454.182 87.2633 454.033 86.722 453.734C86.1807 453.435 85.784 453.001 85.532 452.432L86.638 451.788C86.9273 452.535 87.5807 452.908 88.598 452.908C89.2233 452.908 89.7133 452.759 90.068 452.46C90.4227 452.161 90.6 451.718 90.6 451.13V444.2H91.888V451.13C91.888 452.11 91.5753 452.866 90.95 453.398C90.334 453.921 89.55 454.182 88.598 454.182ZM99.5983 447H100.816V454H99.5983V452.796C98.9916 453.72 98.1096 454.182 96.9523 454.182C95.9723 454.182 95.1369 453.827 94.4463 453.118C93.7556 452.399 93.4103 451.527 93.4103 450.5C93.4103 449.473 93.7556 448.605 94.4463 447.896C95.1369 447.177 95.9723 446.818 96.9523 446.818C98.1096 446.818 98.9916 447.28 99.5983 448.204V447ZM97.1063 453.006C97.8156 453.006 98.4083 452.768 98.8843 452.292C99.3603 451.807 99.5983 451.209 99.5983 450.5C99.5983 449.791 99.3603 449.198 98.8843 448.722C98.4083 448.237 97.8156 447.994 97.1063 447.994C96.4063 447.994 95.8183 448.237 95.3423 448.722C94.8663 449.198 94.6283 449.791 94.6283 450.5C94.6283 451.209 94.8663 451.807 95.3423 452.292C95.8183 452.768 96.4063 453.006 97.1063 453.006ZM106.288 446.818C107.109 446.818 107.767 447.079 108.262 447.602C108.756 448.115 109.004 448.815 109.004 449.702V454H107.786V449.772C107.786 449.203 107.632 448.764 107.324 448.456C107.016 448.139 106.591 447.98 106.05 447.98C105.443 447.98 104.953 448.171 104.58 448.554C104.206 448.927 104.02 449.506 104.02 450.29V454H102.802V447H104.02V448.008C104.514 447.215 105.27 446.818 106.288 446.818ZM111.698 451.06C111.819 451.685 112.104 452.171 112.552 452.516C113.009 452.861 113.569 453.034 114.232 453.034C115.156 453.034 115.828 452.693 116.248 452.012L117.284 452.6C116.603 453.655 115.576 454.182 114.204 454.182C113.093 454.182 112.188 453.837 111.488 453.146C110.797 452.446 110.452 451.564 110.452 450.5C110.452 449.445 110.793 448.568 111.474 447.868C112.155 447.168 113.037 446.818 114.12 446.818C115.147 446.818 115.982 447.182 116.626 447.91C117.279 448.629 117.606 449.497 117.606 450.514C117.606 450.691 117.592 450.873 117.564 451.06H111.698ZM114.12 447.966C113.467 447.966 112.925 448.153 112.496 448.526C112.067 448.89 111.801 449.38 111.698 449.996H116.374C116.271 449.333 116.01 448.829 115.59 448.484C115.17 448.139 114.68 447.966 114.12 447.966ZM124.214 452.768H128.442V454H122.912V444.2H124.214V452.768ZM135.285 447H136.503V454H135.285V452.796C134.678 453.72 133.796 454.182 132.639 454.182C131.659 454.182 130.823 453.827 130.133 453.118C129.442 452.399 129.097 451.527 129.097 450.5C129.097 449.473 129.442 448.605 130.133 447.896C130.823 447.177 131.659 446.818 132.639 446.818C133.796 446.818 134.678 447.28 135.285 448.204V447ZM132.793 453.006C133.502 453.006 134.095 452.768 134.571 452.292C135.047 451.807 135.285 451.209 135.285 450.5C135.285 449.791 135.047 449.198 134.571 448.722C134.095 448.237 133.502 447.994 132.793 447.994C132.093 447.994 131.505 448.237 131.029 448.722C130.553 449.198 130.315 449.791 130.315 450.5C130.315 451.209 130.553 451.807 131.029 452.292C131.505 452.768 132.093 453.006 132.793 453.006ZM141.974 446.818C142.795 446.818 143.453 447.079 143.948 447.602C144.443 448.115 144.69 448.815 144.69 449.702V454H143.472V449.772C143.472 449.203 143.318 448.764 143.01 448.456C142.702 448.139 142.277 447.98 141.736 447.98C141.129 447.98 140.639 448.171 140.266 448.554C139.893 448.927 139.706 449.506 139.706 450.29V454H138.488V447H139.706V448.008C140.201 447.215 140.957 446.818 141.974 446.818ZM147.384 451.06C147.506 451.685 147.79 452.171 148.238 452.516C148.696 452.861 149.256 453.034 149.918 453.034C150.842 453.034 151.514 452.693 151.934 452.012L152.97 452.6C152.289 453.655 151.262 454.182 149.89 454.182C148.78 454.182 147.874 453.837 147.174 453.146C146.484 452.446 146.138 451.564 146.138 450.5C146.138 449.445 146.479 448.568 147.16 447.868C147.842 447.168 148.724 446.818 149.806 446.818C150.833 446.818 151.668 447.182 152.312 447.91C152.966 448.629 153.292 449.497 153.292 450.514C153.292 450.691 153.278 450.873 153.25 451.06H147.384ZM149.806 447.966C149.153 447.966 148.612 448.153 148.182 448.526C147.753 448.89 147.487 449.38 147.384 449.996H152.06C151.958 449.333 151.696 448.829 151.276 448.484C150.856 448.139 150.366 447.966 149.806 447.966Z" fill="#A6ACBE"/>
<path d="M344.017 448.904C344.978 449.436 345.459 450.229 345.459 451.284C345.459 452.18 345.146 452.889 344.521 453.412C343.896 453.925 343.065 454.182 342.029 454.182C340.993 454.182 340.158 453.925 339.523 453.412C338.898 452.889 338.585 452.18 338.585 451.284C338.585 450.78 338.711 450.323 338.963 449.912C339.215 449.492 339.57 449.156 340.027 448.904C339.29 448.419 338.921 447.728 338.921 446.832C338.921 445.936 339.22 445.245 339.817 444.76C340.414 444.265 341.152 444.018 342.029 444.018C342.897 444.018 343.63 444.265 344.227 444.76C344.834 445.245 345.137 445.936 345.137 446.832C345.137 447.728 344.764 448.419 344.017 448.904ZM342.029 445.544C341.59 445.544 341.231 445.661 340.951 445.894C340.671 446.127 340.531 446.463 340.531 446.902C340.531 447.322 340.671 447.653 340.951 447.896C341.24 448.139 341.6 448.26 342.029 448.26C342.449 448.26 342.804 448.139 343.093 447.896C343.382 447.653 343.527 447.322 343.527 446.902C343.527 446.463 343.382 446.127 343.093 445.894C342.813 445.661 342.458 445.544 342.029 445.544ZM342.029 452.656C342.57 452.656 343.009 452.525 343.345 452.264C343.681 451.993 343.849 451.615 343.849 451.13C343.849 450.645 343.681 450.271 343.345 450.01C343.009 449.739 342.57 449.604 342.029 449.604C341.478 449.604 341.035 449.739 340.699 450.01C340.363 450.271 340.195 450.645 340.195 451.13C340.195 451.615 340.363 451.993 340.699 452.264C341.035 452.525 341.478 452.656 342.029 452.656ZM348.617 453.86C348.411 454.065 348.164 454.168 347.875 454.168C347.585 454.168 347.338 454.065 347.133 453.86C346.927 453.655 346.825 453.407 346.825 453.118C346.825 452.829 346.923 452.581 347.119 452.376C347.324 452.171 347.576 452.068 347.875 452.068C348.164 452.068 348.411 452.171 348.617 452.376C348.822 452.581 348.925 452.829 348.925 453.118C348.925 453.407 348.822 453.655 348.617 453.86ZM352.549 444.2H353.949V454H352.339V445.922L350.365 446.482L349.973 445.11L352.549 444.2Z" fill="black"/>
<circle cx="50" cy="449" r="20" fill="#EBEBEB"/>
<path d="M89.606 509.2C90.5113 509.2 91.2627 509.503 91.86 510.11C92.4667 510.707 92.77 511.454 92.77 512.35C92.77 513.237 92.4667 513.983 91.86 514.59C91.2627 515.197 90.5113 515.5 89.606 515.5H87.352V519H86.05V509.2H89.606ZM89.606 514.282C90.1473 514.282 90.5953 514.1 90.95 513.736C91.3047 513.363 91.482 512.901 91.482 512.35C91.482 511.79 91.3047 511.328 90.95 510.964C90.5953 510.6 90.1473 510.418 89.606 510.418H87.352V514.282H89.606ZM99.5846 512H100.803V519H99.5846V517.796C98.9779 518.72 98.0959 519.182 96.9386 519.182C95.9586 519.182 95.1233 518.827 94.4326 518.118C93.7419 517.399 93.3966 516.527 93.3966 515.5C93.3966 514.473 93.7419 513.605 94.4326 512.896C95.1233 512.177 95.9586 511.818 96.9386 511.818C98.0959 511.818 98.9779 512.28 99.5846 513.204V512ZM97.0926 518.006C97.8019 518.006 98.3946 517.768 98.8706 517.292C99.3466 516.807 99.5846 516.209 99.5846 515.5C99.5846 514.791 99.3466 514.198 98.8706 513.722C98.3946 513.237 97.8019 512.994 97.0926 512.994C96.3926 512.994 95.8046 513.237 95.3286 513.722C94.8526 514.198 94.6146 514.791 94.6146 515.5C94.6146 516.209 94.8526 516.807 95.3286 517.292C95.8046 517.768 96.3926 518.006 97.0926 518.006ZM106.596 513.176H104.734V516.97C104.734 517.315 104.799 517.563 104.93 517.712C105.07 517.852 105.28 517.927 105.56 517.936C105.84 517.936 106.185 517.927 106.596 517.908V519C105.532 519.14 104.753 519.056 104.258 518.748C103.763 518.431 103.516 517.838 103.516 516.97V513.176H102.13V512H103.516V510.404L104.734 510.04V512H106.596V513.176ZM121.155 509.2V519H119.867V511.342L116.661 516.676H116.493L113.287 511.356V519H111.985V509.2H113.455L116.577 514.38L119.685 509.2H121.155ZM126.555 519.182C125.5 519.182 124.623 518.832 123.923 518.132C123.223 517.423 122.873 516.545 122.873 515.5C122.873 514.455 123.223 513.582 123.923 512.882C124.623 512.173 125.5 511.818 126.555 511.818C127.245 511.818 127.866 511.986 128.417 512.322C128.967 512.649 129.378 513.092 129.649 513.652L128.627 514.24C128.449 513.867 128.174 513.568 127.801 513.344C127.437 513.12 127.021 513.008 126.555 513.008C125.855 513.008 125.267 513.246 124.791 513.722C124.324 514.198 124.091 514.791 124.091 515.5C124.091 516.2 124.324 516.788 124.791 517.264C125.267 517.74 125.855 517.978 126.555 517.978C127.021 517.978 127.441 517.871 127.815 517.656C128.188 517.432 128.473 517.133 128.669 516.76L129.705 517.362C129.406 517.913 128.977 518.356 128.417 518.692C127.857 519.019 127.236 519.182 126.555 519.182ZM136.969 519H135.457L132.265 515.682V519H131.047V509.2H132.265V515.094L135.289 512H136.857L133.511 515.388L136.969 519ZM138.858 510.726C138.625 510.726 138.429 510.647 138.27 510.488C138.111 510.329 138.032 510.138 138.032 509.914C138.032 509.69 138.111 509.499 138.27 509.34C138.429 509.172 138.625 509.088 138.858 509.088C139.082 509.088 139.273 509.172 139.432 509.34C139.591 509.499 139.67 509.69 139.67 509.914C139.67 510.138 139.591 510.329 139.432 510.488C139.273 510.647 139.082 510.726 138.858 510.726ZM138.242 519V512H139.46V519H138.242ZM144.944 511.818C145.765 511.818 146.423 512.079 146.918 512.602C147.413 513.115 147.66 513.815 147.66 514.702V519H146.442V514.772C146.442 514.203 146.288 513.764 145.98 513.456C145.672 513.139 145.247 512.98 144.706 512.98C144.099 512.98 143.609 513.171 143.236 513.554C142.863 513.927 142.676 514.506 142.676 515.29V519H141.458V512H142.676V513.008C143.171 512.215 143.927 511.818 144.944 511.818ZM152.986 511.818C153.808 511.818 154.466 512.079 154.96 512.602C155.455 513.115 155.702 513.815 155.702 514.702V519H154.484V514.772C154.484 514.203 154.33 513.764 154.022 513.456C153.714 513.139 153.29 512.98 152.748 512.98C152.142 512.98 151.652 513.171 151.278 513.554C150.905 513.927 150.718 514.506 150.718 515.29V519H149.5V512H150.718V513.008C151.213 512.215 151.969 511.818 152.986 511.818ZM158.397 516.06C158.518 516.685 158.803 517.171 159.251 517.516C159.708 517.861 160.268 518.034 160.931 518.034C161.855 518.034 162.527 517.693 162.947 517.012L163.983 517.6C163.301 518.655 162.275 519.182 160.903 519.182C159.792 519.182 158.887 518.837 158.187 518.146C157.496 517.446 157.151 516.564 157.151 515.5C157.151 514.445 157.491 513.568 158.173 512.868C158.854 512.168 159.736 511.818 160.819 511.818C161.845 511.818 162.681 512.182 163.325 512.91C163.978 513.629 164.305 514.497 164.305 515.514C164.305 515.691 164.291 515.873 164.263 516.06H158.397ZM160.819 512.966C160.165 512.966 159.624 513.153 159.195 513.526C158.765 513.89 158.499 514.38 158.397 514.996H163.073C162.97 514.333 162.709 513.829 162.289 513.484C161.869 513.139 161.379 512.966 160.819 512.966ZM170.457 512H171.759L168.903 519.434C168.605 520.227 168.185 520.829 167.643 521.24C167.111 521.66 166.495 521.847 165.795 521.8V520.666C166.654 520.731 167.284 520.255 167.685 519.238L167.811 518.972L164.759 512H166.061L168.441 517.488L170.457 512Z" fill="#A6ACBE"/>
<path d="M339.959 509.2H346.189V510.6L342.745 519H341.051L344.439 510.74H339.959V509.2ZM347.181 518.86C346.976 519.065 346.728 519.168 346.439 519.168C346.15 519.168 345.902 519.065 345.697 518.86C345.492 518.655 345.389 518.407 345.389 518.118C345.389 517.829 345.487 517.581 345.683 517.376C345.888 517.171 346.14 517.068 346.439 517.068C346.728 517.068 346.976 517.171 347.181 517.376C347.386 517.581 347.489 517.829 347.489 518.118C347.489 518.407 347.386 518.655 347.181 518.86ZM354.651 512.364C354.651 513.111 354.455 513.769 354.063 514.338L350.969 519H349.121L351.361 515.71H351.193C350.176 515.71 349.34 515.402 348.687 514.786C348.043 514.161 347.721 513.353 347.721 512.364C347.721 511.375 348.043 510.572 348.687 509.956C349.34 509.331 350.176 509.018 351.193 509.018C352.21 509.018 353.041 509.331 353.685 509.956C354.329 510.572 354.651 511.375 354.651 512.364ZM349.331 512.364C349.331 512.905 349.504 513.344 349.849 513.68C350.204 514.016 350.652 514.184 351.193 514.184C351.734 514.184 352.178 514.021 352.523 513.694C352.868 513.358 353.041 512.915 353.041 512.364C353.041 511.813 352.868 511.375 352.523 511.048C352.178 510.712 351.734 510.544 351.193 510.544C350.652 510.544 350.204 510.712 349.849 511.048C349.504 511.375 349.331 511.813 349.331 512.364Z" fill="black"/>
<circle cx="50" cy="514" r="20" fill="#EBEBEB"/>
<rect x="377" y="166" width="3" height="39" rx="1.5" fill="#DADCE4"/>
</svg>
