<svg width="395" height="154" viewBox="0 0 395 154" fill="none" xmlns="http://www.w3.org/2000/svg">
<rect width="395" height="154" rx="10" fill="#EDEDF6"/>
<rect width="395" height="151" rx="10" fill="white"/>
<path d="M154.56 58.728C154.56 60.2213 154.168 61.5373 153.384 62.676L147.196 72H143.5L147.98 65.42H147.644C145.609 65.42 143.939 64.804 142.632 63.572C141.344 62.3213 140.7 60.7067 140.7 58.728C140.7 56.7493 141.344 55.144 142.632 53.912C143.939 52.6613 145.609 52.036 147.644 52.036C149.679 52.036 151.34 52.6613 152.628 53.912C153.916 55.144 154.56 56.7493 154.56 58.728ZM143.92 58.728C143.92 59.8107 144.265 60.688 144.956 61.36C145.665 62.032 146.561 62.368 147.644 62.368C148.727 62.368 149.613 62.0413 150.304 61.388C150.995 60.716 151.34 59.8293 151.34 58.728C151.34 57.6267 150.995 56.7493 150.304 56.096C149.613 55.424 148.727 55.088 147.644 55.088C146.561 55.088 145.665 55.424 144.956 56.096C144.265 56.7493 143.92 57.6267 143.92 58.728Z" fill="black"/>
<path d="M166.118 74C164.651 71.0667 163.918 68.0667 163.918 65C163.918 61.9333 164.651 58.9333 166.118 56H168.278C166.811 58.9333 166.078 61.9333 166.078 65C166.078 68.0667 166.811 71.0667 168.278 74H166.118ZM172.817 58H174.817V72H172.517V60.46L169.697 61.26L169.137 59.3L172.817 58ZM187.779 67.34V69.48H186.179V72H183.859V69.48H176.979V67.34L181.799 58H184.299L179.479 67.34H183.859V63.7H186.179V67.34H187.779ZM193.924 63.22C193.311 63.8333 192.537 64.14 191.604 64.14C190.671 64.14 189.891 63.8333 189.264 63.22C188.637 62.5933 188.324 61.8333 188.324 60.94C188.324 60.0467 188.637 59.2933 189.264 58.68C189.891 58.0533 190.671 57.74 191.604 57.74C192.537 57.74 193.311 58.0467 193.924 58.66C194.551 59.2733 194.864 60.0333 194.864 60.94C194.864 61.8333 194.551 62.5933 193.924 63.22ZM191.584 62.38C192.011 62.38 192.357 62.24 192.624 61.96C192.891 61.68 193.024 61.34 193.024 60.94C193.024 60.5267 192.891 60.18 192.624 59.9C192.357 59.62 192.011 59.48 191.584 59.48C191.171 59.48 190.831 59.62 190.564 59.9C190.297 60.18 190.164 60.5267 190.164 60.94C190.164 61.34 190.297 61.68 190.564 61.96C190.831 62.24 191.171 62.38 191.584 62.38ZM189.504 69.94L198.724 59.68L199.804 60.3L190.584 70.58L189.504 69.94ZM198.004 72.24C197.071 72.24 196.291 71.9333 195.664 71.32C195.037 70.6933 194.724 69.9333 194.724 69.04C194.724 68.1467 195.037 67.3933 195.664 66.78C196.291 66.1533 197.071 65.84 198.004 65.84C198.924 65.84 199.697 66.1533 200.324 66.78C200.951 67.3933 201.264 68.1467 201.264 69.04C201.264 69.9333 200.951 70.6933 200.324 71.32C199.697 71.9333 198.924 72.24 198.004 72.24ZM197.984 70.48C198.411 70.48 198.757 70.34 199.024 70.06C199.291 69.78 199.424 69.44 199.424 69.04C199.424 68.6267 199.291 68.28 199.024 68C198.757 67.72 198.411 67.58 197.984 67.58C197.571 67.58 197.231 67.72 196.964 68C196.697 68.28 196.564 68.6267 196.564 69.04C196.564 69.44 196.697 69.78 196.964 70.06C197.231 70.34 197.571 70.48 197.984 70.48ZM205.025 74H202.865C204.332 71.0667 205.065 68.0667 205.065 65C205.065 61.9333 204.332 58.9333 202.865 56H205.025C206.492 58.9333 207.225 61.9333 207.225 65C207.225 68.0667 206.492 71.0667 205.025 74Z" fill="#A6ACBE"/>
<path d="M147.252 102.244C146.571 102.869 145.689 103.182 144.606 103.182C143.523 103.182 142.637 102.869 141.946 102.244C141.265 101.609 140.924 100.765 140.924 99.71V93.2H142.226V99.654C142.226 100.345 142.431 100.895 142.842 101.306C143.253 101.707 143.841 101.908 144.606 101.908C145.371 101.908 145.959 101.707 146.37 101.306C146.781 100.895 146.986 100.345 146.986 99.654V93.2H148.274V99.71C148.274 100.765 147.933 101.609 147.252 102.244ZM153.765 95.818C154.586 95.818 155.244 96.0793 155.739 96.602C156.234 97.1153 156.481 97.8153 156.481 98.702V103H155.263V98.772C155.263 98.2027 155.109 97.764 154.801 97.456C154.493 97.1387 154.068 96.98 153.527 96.98C152.92 96.98 152.43 97.1713 152.057 97.554C151.684 97.9273 151.497 98.506 151.497 99.29V103H150.279V96H151.497V97.008C151.992 96.2147 152.748 95.818 153.765 95.818ZM164.117 93.2H165.335V103H164.117V101.796C163.511 102.72 162.629 103.182 161.471 103.182C160.491 103.182 159.656 102.827 158.965 102.118C158.275 101.399 157.929 100.527 157.929 99.5C157.929 98.4733 158.275 97.6053 158.965 96.896C159.656 96.1773 160.491 95.818 161.471 95.818C162.629 95.818 163.511 96.28 164.117 97.204V93.2ZM161.625 102.006C162.335 102.006 162.927 101.768 163.403 101.292C163.879 100.807 164.117 100.209 164.117 99.5C164.117 98.7907 163.879 98.198 163.403 97.722C162.927 97.2367 162.335 96.994 161.625 96.994C160.925 96.994 160.337 97.2367 159.861 97.722C159.385 98.198 159.147 98.7907 159.147 99.5C159.147 100.209 159.385 100.807 159.861 101.292C160.337 101.768 160.925 102.006 161.625 102.006ZM168.175 100.06C168.296 100.685 168.581 101.171 169.029 101.516C169.486 101.861 170.046 102.034 170.709 102.034C171.633 102.034 172.305 101.693 172.725 101.012L173.761 101.6C173.079 102.655 172.053 103.182 170.681 103.182C169.57 103.182 168.665 102.837 167.965 102.146C167.274 101.446 166.929 100.564 166.929 99.5C166.929 98.4453 167.269 97.568 167.951 96.868C168.632 96.168 169.514 95.818 170.597 95.818C171.623 95.818 172.459 96.182 173.103 96.91C173.756 97.6287 174.083 98.4967 174.083 99.514C174.083 99.6913 174.069 99.8733 174.041 100.06H168.175ZM170.597 96.966C169.943 96.966 169.402 97.1527 168.973 97.526C168.543 97.89 168.277 98.38 168.175 98.996H172.851C172.748 98.3333 172.487 97.8293 172.067 97.484C171.647 97.1387 171.157 96.966 170.597 96.966ZM176.841 97.176C177.242 96.308 177.97 95.874 179.025 95.874V97.148C178.427 97.12 177.914 97.2787 177.485 97.624C177.055 97.9693 176.841 98.5247 176.841 99.29V103H175.623V96H176.841V97.176ZM184.22 95.818C185.2 95.818 186.036 96.1773 186.726 96.896C187.417 97.6053 187.762 98.4733 187.762 99.5C187.762 100.527 187.417 101.399 186.726 102.118C186.036 102.827 185.2 103.182 184.22 103.182C183.063 103.182 182.181 102.72 181.574 101.796V105.8H180.356V96H181.574V97.204C182.181 96.28 183.063 95.818 184.22 95.818ZM184.066 102.006C184.766 102.006 185.354 101.768 185.83 101.292C186.306 100.807 186.544 100.209 186.544 99.5C186.544 98.7907 186.306 98.198 185.83 97.722C185.354 97.2367 184.766 96.994 184.066 96.994C183.357 96.994 182.764 97.2367 182.288 97.722C181.812 98.198 181.574 98.7907 181.574 99.5C181.574 100.209 181.812 100.807 182.288 101.292C182.764 101.768 183.357 102.006 184.066 102.006ZM190.21 100.06C190.331 100.685 190.616 101.171 191.064 101.516C191.521 101.861 192.081 102.034 192.744 102.034C193.668 102.034 194.34 101.693 194.76 101.012L195.796 101.6C195.114 102.655 194.088 103.182 192.716 103.182C191.605 103.182 190.7 102.837 190 102.146C189.309 101.446 188.964 100.564 188.964 99.5C188.964 98.4453 189.304 97.568 189.986 96.868C190.667 96.168 191.549 95.818 192.632 95.818C193.658 95.818 194.494 96.182 195.138 96.91C195.791 97.6287 196.118 98.4967 196.118 99.514C196.118 99.6913 196.104 99.8733 196.076 100.06H190.21ZM192.632 96.966C191.978 96.966 191.437 97.1527 191.008 97.526C190.578 97.89 190.312 98.38 190.21 98.996H194.886C194.783 98.3333 194.522 97.8293 194.102 97.484C193.682 97.1387 193.192 96.966 192.632 96.966ZM198.876 97.176C199.277 96.308 200.005 95.874 201.06 95.874V97.148C200.463 97.12 199.949 97.2787 199.52 97.624C199.091 97.9693 198.876 98.5247 198.876 99.29V103H197.658V96H198.876V97.176ZM205.99 94.194C204.758 94.0913 204.142 94.6233 204.142 95.79V96H205.99V97.176H204.142V103H202.924V97.176H201.804V96H202.924V95.79C202.924 94.8473 203.185 94.1333 203.708 93.648C204.24 93.1627 205 92.9527 205.99 93.018V94.194ZM212.582 102.118C211.864 102.827 210.991 103.182 209.964 103.182C208.938 103.182 208.065 102.827 207.346 102.118C206.637 101.409 206.282 100.536 206.282 99.5C206.282 98.464 206.637 97.5913 207.346 96.882C208.065 96.1727 208.938 95.818 209.964 95.818C210.991 95.818 211.864 96.1727 212.582 96.882C213.301 97.5913 213.66 98.464 213.66 99.5C213.66 100.536 213.301 101.409 212.582 102.118ZM209.964 101.992C210.664 101.992 211.252 101.754 211.728 101.278C212.204 100.802 212.442 100.209 212.442 99.5C212.442 98.7907 212.204 98.198 211.728 97.722C211.252 97.246 210.664 97.008 209.964 97.008C209.274 97.008 208.69 97.246 208.214 97.722C207.738 98.198 207.5 98.7907 207.5 99.5C207.5 100.209 207.738 100.802 208.214 101.278C208.69 101.754 209.274 101.992 209.964 101.992ZM216.454 97.176C216.855 96.308 217.583 95.874 218.638 95.874V97.148C218.041 97.12 217.527 97.2787 217.098 97.624C216.669 97.9693 216.454 98.5247 216.454 99.29V103H215.236V96H216.454V97.176ZM227.53 95.818C228.314 95.818 228.949 96.0747 229.434 96.588C229.919 97.092 230.162 97.778 230.162 98.646V103H228.944V98.688C228.944 98.1467 228.804 97.7267 228.524 97.428C228.244 97.1293 227.871 96.98 227.404 96.98C226.881 96.98 226.461 97.1573 226.144 97.512C225.836 97.8573 225.682 98.3893 225.682 99.108V103H224.464V98.688C224.464 98.1467 224.329 97.7267 224.058 97.428C223.797 97.1293 223.437 96.98 222.98 96.98C222.467 96.98 222.037 97.1573 221.692 97.512C221.356 97.8667 221.188 98.3987 221.188 99.108V103H219.97V96H221.188V96.938C221.664 96.1913 222.359 95.818 223.274 95.818C224.217 95.818 224.903 96.2147 225.332 97.008C225.817 96.2147 226.55 95.818 227.53 95.818ZM232.607 94.726C232.373 94.726 232.177 94.6467 232.019 94.488C231.86 94.3293 231.781 94.138 231.781 93.914C231.781 93.69 231.86 93.4987 232.019 93.34C232.177 93.172 232.373 93.088 232.607 93.088C232.831 93.088 233.022 93.172 233.181 93.34C233.339 93.4987 233.419 93.69 233.419 93.914C233.419 94.138 233.339 94.3293 233.181 94.488C233.022 94.6467 232.831 94.726 232.607 94.726ZM231.991 103V96H233.209V103H231.991ZM238.693 95.818C239.514 95.818 240.172 96.0793 240.667 96.602C241.162 97.1153 241.409 97.8153 241.409 98.702V103H240.191V98.772C240.191 98.2027 240.037 97.764 239.729 97.456C239.421 97.1387 238.996 96.98 238.455 96.98C237.848 96.98 237.358 97.1713 236.985 97.554C236.612 97.9273 236.425 98.506 236.425 99.29V103H235.207V96H236.425V97.008C236.92 96.2147 237.676 95.818 238.693 95.818ZM249.059 96H250.263V102.706C250.263 103.742 249.913 104.545 249.213 105.114C248.513 105.693 247.673 105.982 246.693 105.982C245.909 105.982 245.233 105.833 244.663 105.534C244.094 105.245 243.665 104.825 243.375 104.274L244.439 103.672C244.822 104.456 245.583 104.848 246.721 104.848C247.449 104.848 248.019 104.657 248.429 104.274C248.849 103.891 249.059 103.369 249.059 102.706V101.712C248.443 102.645 247.566 103.112 246.427 103.112C245.429 103.112 244.584 102.757 243.893 102.048C243.203 101.339 242.857 100.475 242.857 99.458C242.857 98.4407 243.203 97.582 243.893 96.882C244.584 96.1727 245.429 95.818 246.427 95.818C247.575 95.818 248.453 96.28 249.059 97.204V96ZM244.789 101.236C245.265 101.712 245.858 101.95 246.567 101.95C247.277 101.95 247.869 101.712 248.345 101.236C248.821 100.76 249.059 100.167 249.059 99.458C249.059 98.758 248.821 98.17 248.345 97.694C247.869 97.218 247.277 96.98 246.567 96.98C245.858 96.98 245.265 97.218 244.789 97.694C244.313 98.17 244.075 98.758 244.075 99.458C244.075 100.167 244.313 100.76 244.789 101.236ZM256.939 97.89C256.939 98.1607 257.074 98.38 257.345 98.548C257.615 98.7067 257.942 98.8373 258.325 98.94C258.707 99.0333 259.09 99.1453 259.473 99.276C259.855 99.3973 260.182 99.612 260.453 99.92C260.723 100.219 260.859 100.606 260.859 101.082C260.859 101.717 260.611 102.225 260.117 102.608C259.631 102.991 259.006 103.182 258.241 103.182C257.559 103.182 256.976 103.033 256.491 102.734C256.005 102.435 255.66 102.039 255.455 101.544L256.505 100.942C256.617 101.278 256.827 101.544 257.135 101.74C257.443 101.936 257.811 102.034 258.241 102.034C258.642 102.034 258.973 101.959 259.235 101.81C259.496 101.651 259.627 101.409 259.627 101.082C259.627 100.811 259.491 100.597 259.221 100.438C258.95 100.27 258.623 100.139 258.241 100.046C257.858 99.9433 257.475 99.8267 257.093 99.696C256.71 99.5653 256.383 99.3507 256.113 99.052C255.842 98.7533 255.707 98.3707 255.707 97.904C255.707 97.2973 255.94 96.798 256.407 96.406C256.883 96.014 257.475 95.818 258.185 95.818C258.754 95.818 259.258 95.9487 259.697 96.21C260.145 96.462 260.481 96.8167 260.705 97.274L259.683 97.848C259.431 97.2507 258.931 96.952 258.185 96.952C257.839 96.952 257.545 97.036 257.303 97.204C257.06 97.3627 256.939 97.5913 256.939 97.89ZM265.975 97.176H264.113V100.97C264.113 101.315 264.179 101.563 264.309 101.712C264.449 101.852 264.659 101.927 264.939 101.936C265.219 101.936 265.565 101.927 265.975 101.908V103C264.911 103.14 264.132 103.056 263.637 102.748C263.143 102.431 262.895 101.838 262.895 100.97V97.176H261.509V96H262.895V94.404L264.113 94.04V96H265.975V97.176ZM272.428 96H273.646V103H272.428V101.992C271.934 102.785 271.178 103.182 270.16 103.182C269.339 103.182 268.681 102.925 268.186 102.412C267.692 101.889 267.444 101.185 267.444 100.298V96H268.662V100.228C268.662 100.797 268.816 101.241 269.124 101.558C269.432 101.866 269.857 102.02 270.398 102.02C271.005 102.02 271.495 101.833 271.868 101.46C272.242 101.077 272.428 100.494 272.428 99.71V96ZM281.437 93.2H282.655V103H281.437V101.796C280.83 102.72 279.948 103.182 278.791 103.182C277.811 103.182 276.975 102.827 276.285 102.118C275.594 101.399 275.249 100.527 275.249 99.5C275.249 98.4733 275.594 97.6053 276.285 96.896C276.975 96.1773 277.811 95.818 278.791 95.818C279.948 95.818 280.83 96.28 281.437 97.204V93.2ZM278.945 102.006C279.654 102.006 280.247 101.768 280.723 101.292C281.199 100.807 281.437 100.209 281.437 99.5C281.437 98.7907 281.199 98.198 280.723 97.722C280.247 97.2367 279.654 96.994 278.945 96.994C278.245 96.994 277.657 97.2367 277.181 97.722C276.705 98.198 276.467 98.7907 276.467 99.5C276.467 100.209 276.705 100.807 277.181 101.292C277.657 101.768 278.245 102.006 278.945 102.006ZM285.494 100.06C285.615 100.685 285.9 101.171 286.348 101.516C286.805 101.861 287.365 102.034 288.028 102.034C288.952 102.034 289.624 101.693 290.044 101.012L291.08 101.6C290.399 102.655 289.372 103.182 288 103.182C286.889 103.182 285.984 102.837 285.284 102.146C284.593 101.446 284.248 100.564 284.248 99.5C284.248 98.4453 284.589 97.568 285.27 96.868C285.951 96.168 286.833 95.818 287.916 95.818C288.943 95.818 289.778 96.182 290.422 96.91C291.075 97.6287 291.402 98.4967 291.402 99.514C291.402 99.6913 291.388 99.8733 291.36 100.06H285.494ZM287.916 96.966C287.263 96.966 286.721 97.1527 286.292 97.526C285.863 97.89 285.597 98.38 285.494 98.996H290.17C290.067 98.3333 289.806 97.8293 289.386 97.484C288.966 97.1387 288.476 96.966 287.916 96.966ZM296.428 95.818C297.249 95.818 297.907 96.0793 298.402 96.602C298.897 97.1153 299.144 97.8153 299.144 98.702V103H297.926V98.772C297.926 98.2027 297.772 97.764 297.464 97.456C297.156 97.1387 296.731 96.98 296.19 96.98C295.583 96.98 295.093 97.1713 294.72 97.554C294.347 97.9273 294.16 98.506 294.16 99.29V103H292.942V96H294.16V97.008C294.655 96.2147 295.411 95.818 296.428 95.818ZM304.792 97.176H302.93V100.97C302.93 101.315 302.996 101.563 303.126 101.712C303.266 101.852 303.476 101.927 303.756 101.936C304.036 101.936 304.382 101.927 304.792 101.908V103C303.728 103.14 302.949 103.056 302.454 102.748C301.96 102.431 301.712 101.838 301.712 100.97V97.176H300.326V96H301.712V94.404L302.93 94.04V96H304.792V97.176ZM307.083 97.89C307.083 98.1607 307.218 98.38 307.489 98.548C307.759 98.7067 308.086 98.8373 308.469 98.94C308.851 99.0333 309.234 99.1453 309.617 99.276C309.999 99.3973 310.326 99.612 310.597 99.92C310.867 100.219 311.003 100.606 311.003 101.082C311.003 101.717 310.755 102.225 310.261 102.608C309.775 102.991 309.15 103.182 308.385 103.182C307.703 103.182 307.12 103.033 306.635 102.734C306.149 102.435 305.804 102.039 305.599 101.544L306.649 100.942C306.761 101.278 306.971 101.544 307.279 101.74C307.587 101.936 307.955 102.034 308.385 102.034C308.786 102.034 309.117 101.959 309.379 101.81C309.64 101.651 309.771 101.409 309.771 101.082C309.771 100.811 309.635 100.597 309.365 100.438C309.094 100.27 308.767 100.139 308.385 100.046C308.002 99.9433 307.619 99.8267 307.237 99.696C306.854 99.5653 306.527 99.3507 306.257 99.052C305.986 98.7533 305.851 98.3707 305.851 97.904C305.851 97.2973 306.084 96.798 306.551 96.406C307.027 96.014 307.619 95.818 308.329 95.818C308.898 95.818 309.402 95.9487 309.841 96.21C310.289 96.462 310.625 96.8167 310.849 97.274L309.827 97.848C309.575 97.2507 309.075 96.952 308.329 96.952C307.983 96.952 307.689 97.036 307.447 97.204C307.204 97.3627 307.083 97.5913 307.083 97.89Z" fill="#A6ACBE"/>
<circle cx="75" cy="75" r="35" fill="#FF4C61" fill-opacity="0.05"/>
<path d="M66 72L72 78L76 74L83.405 81.405" stroke="#FF4C61" stroke-width="2" stroke-linecap="square"/>
<path d="M83.405 81.405L84 82" stroke="#FF4C61" stroke-width="2" stroke-linecap="round"/>
<path d="M84 79V82H81" stroke="#FF4C61" stroke-width="2" stroke-linecap="square"/>
</svg>
